<mxfile host="app.diagrams.net" modified="2023-05-23T20:36:32.506Z" agent="Mozilla/5.0 (Windows NT 10.0; Win64; x64) AppleWebKit/537.36 (KHTML, like Gecko) Chrome/113.0.0.0 Safari/537.36" etag="oCKo12yFMLM1uN3kLjNw" version="21.3.2" type="device">
  <diagram id="6I0OCvxSQrVGMHxT2VVA" name="Page-1">
    <mxGraphModel dx="-326" dy="1964" grid="1" gridSize="10" guides="1" tooltips="1" connect="1" arrows="1" fold="1" page="1" pageScale="1" pageWidth="850" pageHeight="1100" math="0" shadow="0">
      <root>
        <mxCell id="0" />
        <mxCell id="1" parent="0" />
        <mxCell id="2fcH4yExuOtMv_uIpckA-582" value="Модерация пользователей&lt;br&gt;&lt;br&gt;&lt;br&gt;&lt;br&gt;&lt;br&gt;&lt;br&gt;&lt;br&gt;&lt;br&gt;&lt;br&gt;&lt;br&gt;&lt;br&gt;&lt;br&gt;&lt;br&gt;&lt;br&gt;&lt;br&gt;&lt;br&gt;&lt;br&gt;&lt;br&gt;&lt;br&gt;&lt;br&gt;&lt;br&gt;&lt;br&gt;&lt;br&gt;&lt;br&gt;&lt;br&gt;&lt;br&gt;&lt;br&gt;&lt;br&gt;&lt;br&gt;" style="html=1;outlineConnect=0;whiteSpace=wrap;fillColor=#ffff99;shape=mxgraph.archimate3.application;appType=proc;archiType=rounded;" vertex="1" parent="1">
          <mxGeometry x="4277.5" y="770" width="1380" height="470" as="geometry" />
        </mxCell>
        <mxCell id="2fcH4yExuOtMv_uIpckA-404" value="" style="html=1;outlineConnect=0;whiteSpace=wrap;fillColor=#AFFFAF;shape=mxgraph.archimate3.node;" vertex="1" parent="1">
          <mxGeometry x="4487.5" y="2327.5" width="480" height="210" as="geometry" />
        </mxCell>
        <mxCell id="2fcH4yExuOtMv_uIpckA-412" value="Сервис доступа к приложению" style="html=1;outlineConnect=0;whiteSpace=wrap;fillColor=#AFFFAF;shape=mxgraph.archimate3.application;appType=serv;archiType=rounded" vertex="1" parent="1">
          <mxGeometry x="4652.5" y="2160" width="150" height="75" as="geometry" />
        </mxCell>
        <mxCell id="2fcH4yExuOtMv_uIpckA-420" value="Сервис доступа к данным" style="html=1;outlineConnect=0;whiteSpace=wrap;fillColor=#AFFFAF;shape=mxgraph.archimate3.application;appType=serv;archiType=rounded" vertex="1" parent="1">
          <mxGeometry x="5314.75" y="2160" width="150" height="75" as="geometry" />
        </mxCell>
        <mxCell id="2fcH4yExuOtMv_uIpckA-429" value="Сервер" style="html=1;outlineConnect=0;whiteSpace=wrap;fillColor=#AFFFAF;shape=mxgraph.archimate3.device;" vertex="1" parent="1">
          <mxGeometry x="4513.5" y="2407.5" width="50" height="35" as="geometry" />
        </mxCell>
        <mxCell id="2fcH4yExuOtMv_uIpckA-430" value="Сервер приложения" style="text;html=1;strokeColor=none;fillColor=none;align=center;verticalAlign=middle;whiteSpace=wrap;rounded=0;" vertex="1" parent="1">
          <mxGeometry x="4593.5" y="2377.5" width="140" height="30" as="geometry" />
        </mxCell>
        <mxCell id="2fcH4yExuOtMv_uIpckA-431" value="ОС Debian Server" style="html=1;outlineConnect=0;whiteSpace=wrap;fillColor=#AFFFAF;shape=mxgraph.archimate3.application;appType=sysSw;archiType=square;" vertex="1" parent="1">
          <mxGeometry x="4588.5" y="2407.5" width="105" height="50" as="geometry" />
        </mxCell>
        <mxCell id="2fcH4yExuOtMv_uIpckA-432" value="" style="html=1;outlineConnect=0;whiteSpace=wrap;fillColor=#AFFFAF;shape=mxgraph.archimate3.application;appType=sysSw;archiType=square;" vertex="1" parent="1">
          <mxGeometry x="4703.5" y="2407.5" width="140" height="120" as="geometry" />
        </mxCell>
        <mxCell id="2fcH4yExuOtMv_uIpckA-433" value="PostgreSQL" style="html=1;outlineConnect=0;whiteSpace=wrap;fillColor=#AFFFAF;shape=mxgraph.archimate3.application;appType=sysSw;archiType=square;" vertex="1" parent="1">
          <mxGeometry x="4513.5" y="2467.5" width="105" height="55" as="geometry" />
        </mxCell>
        <mxCell id="2fcH4yExuOtMv_uIpckA-434" value="Docker-контейнеры микросервисов" style="html=1;outlineConnect=0;whiteSpace=wrap;fillColor=#AFFFAF;shape=mxgraph.archimate3.application;appType=sysSw;archiType=square;" vertex="1" parent="1">
          <mxGeometry x="4723.5" y="2457.5" width="95" height="55" as="geometry" />
        </mxCell>
        <mxCell id="2fcH4yExuOtMv_uIpckA-435" value="Proxmox" style="text;html=1;strokeColor=none;fillColor=none;align=center;verticalAlign=middle;whiteSpace=wrap;rounded=0;" vertex="1" parent="1">
          <mxGeometry x="4743.5" y="2407.5" width="60" height="30" as="geometry" />
        </mxCell>
        <mxCell id="2fcH4yExuOtMv_uIpckA-436" value="Коммутатор" style="html=1;outlineConnect=0;whiteSpace=wrap;fillColor=#AFFFAF;shape=mxgraph.archimate3.tech;techType=device;" vertex="1" parent="1">
          <mxGeometry x="4878.5" y="2607.5" width="150" height="75" as="geometry" />
        </mxCell>
        <mxCell id="2fcH4yExuOtMv_uIpckA-437" value="Брандмауэр" style="html=1;outlineConnect=0;whiteSpace=wrap;fillColor=#AFFFAF;shape=mxgraph.archimate3.tech;techType=device;" vertex="1" parent="1">
          <mxGeometry x="5208.5" y="2847.5" width="150" height="75" as="geometry" />
        </mxCell>
        <mxCell id="2fcH4yExuOtMv_uIpckA-438" value="Маршрутизатор" style="html=1;outlineConnect=0;whiteSpace=wrap;fillColor=#AFFFAF;shape=mxgraph.archimate3.tech;techType=device;" vertex="1" parent="1">
          <mxGeometry x="5208.5" y="2717.5" width="150" height="75" as="geometry" />
        </mxCell>
        <mxCell id="2fcH4yExuOtMv_uIpckA-439" value="Коммутатор" style="html=1;outlineConnect=0;whiteSpace=wrap;fillColor=#AFFFAF;shape=mxgraph.archimate3.tech;techType=device;" vertex="1" parent="1">
          <mxGeometry x="5448.5" y="2820" width="150" height="75" as="geometry" />
        </mxCell>
        <mxCell id="2fcH4yExuOtMv_uIpckA-440" value="LAN" style="html=1;outlineConnect=0;whiteSpace=wrap;fillColor=#AFFFAF;shape=mxgraph.archimate3.application;appType=netw;archiType=square;" vertex="1" parent="1">
          <mxGeometry x="5928.5" y="2837.5" width="80" height="40" as="geometry" />
        </mxCell>
        <mxCell id="2fcH4yExuOtMv_uIpckA-441" value="" style="html=1;outlineConnect=0;whiteSpace=wrap;fillColor=#AFFFAF;shape=mxgraph.archimate3.node;" vertex="1" parent="1">
          <mxGeometry x="5883.5" y="2260" width="170" height="280" as="geometry" />
        </mxCell>
        <mxCell id="2fcH4yExuOtMv_uIpckA-442" value="Устройство пользователя" style="text;html=1;strokeColor=none;fillColor=none;align=center;verticalAlign=middle;whiteSpace=wrap;rounded=0;" vertex="1" parent="1">
          <mxGeometry x="5903.5" y="2340" width="90" height="30" as="geometry" />
        </mxCell>
        <mxCell id="2fcH4yExuOtMv_uIpckA-443" value="Персональный компьютер с доступом в интернет" style="html=1;outlineConnect=0;whiteSpace=wrap;fillColor=#AFFFAF;shape=mxgraph.archimate3.device;" vertex="1" parent="1">
          <mxGeometry x="5903.5" y="2385" width="90" height="90" as="geometry" />
        </mxCell>
        <mxCell id="2fcH4yExuOtMv_uIpckA-444" value="Браузер" style="html=1;outlineConnect=0;whiteSpace=wrap;fillColor=#AFFFAF;shape=mxgraph.archimate3.application;appType=sysSw;archiType=square;" vertex="1" parent="1">
          <mxGeometry x="5903.5" y="2490" width="90" height="35" as="geometry" />
        </mxCell>
        <mxCell id="2fcH4yExuOtMv_uIpckA-445" value="" style="endArrow=none;html=1;rounded=1;entryX=0.25;entryY=1;entryDx=0;entryDy=0;entryPerimeter=0;exitX=0.5;exitY=0;exitDx=0;exitDy=0;exitPerimeter=0;edgeStyle=orthogonalEdgeStyle;" edge="1" parent="1" source="2fcH4yExuOtMv_uIpckA-460" target="2fcH4yExuOtMv_uIpckA-441">
          <mxGeometry width="50" height="50" relative="1" as="geometry">
            <mxPoint x="5113.5" y="2737.5" as="sourcePoint" />
            <mxPoint x="4953.5" y="2787.5" as="targetPoint" />
          </mxGeometry>
        </mxCell>
        <mxCell id="2fcH4yExuOtMv_uIpckA-446" value="" style="endArrow=none;html=1;rounded=0;entryX=0;entryY=0.5;entryDx=0;entryDy=0;entryPerimeter=0;exitX=1;exitY=0.5;exitDx=0;exitDy=0;exitPerimeter=0;" edge="1" parent="1" source="2fcH4yExuOtMv_uIpckA-438" target="2fcH4yExuOtMv_uIpckA-460">
          <mxGeometry width="50" height="50" relative="1" as="geometry">
            <mxPoint x="5123.5" y="2857.5" as="sourcePoint" />
            <mxPoint x="5173.5" y="2807.5" as="targetPoint" />
          </mxGeometry>
        </mxCell>
        <mxCell id="2fcH4yExuOtMv_uIpckA-447" value="" style="endArrow=none;html=1;rounded=0;entryX=0;entryY=0.5;entryDx=0;entryDy=0;entryPerimeter=0;exitX=1;exitY=0.5;exitDx=0;exitDy=0;exitPerimeter=0;" edge="1" parent="1" source="2fcH4yExuOtMv_uIpckA-439" target="2fcH4yExuOtMv_uIpckA-440">
          <mxGeometry width="50" height="50" relative="1" as="geometry">
            <mxPoint x="5123.5" y="2857.5" as="sourcePoint" />
            <mxPoint x="5173.5" y="2807.5" as="targetPoint" />
          </mxGeometry>
        </mxCell>
        <mxCell id="2fcH4yExuOtMv_uIpckA-448" value="" style="endArrow=none;html=1;rounded=0;exitX=0.5;exitY=0;exitDx=0;exitDy=0;exitPerimeter=0;entryX=1;entryY=1;entryDx=0;entryDy=-10;entryPerimeter=0;" edge="1" parent="1" source="2fcH4yExuOtMv_uIpckA-439" target="2fcH4yExuOtMv_uIpckA-438">
          <mxGeometry width="50" height="50" relative="1" as="geometry">
            <mxPoint x="5123.5" y="2857.5" as="sourcePoint" />
            <mxPoint x="5173.5" y="2807.5" as="targetPoint" />
            <Array as="points">
              <mxPoint x="5523.5" y="2782.5" />
            </Array>
          </mxGeometry>
        </mxCell>
        <mxCell id="2fcH4yExuOtMv_uIpckA-449" value="" style="endArrow=none;html=1;rounded=0;entryX=0.5;entryY=1;entryDx=0;entryDy=0;entryPerimeter=0;exitX=0.5;exitY=0;exitDx=0;exitDy=0;exitPerimeter=0;" edge="1" parent="1" source="2fcH4yExuOtMv_uIpckA-437" target="2fcH4yExuOtMv_uIpckA-438">
          <mxGeometry width="50" height="50" relative="1" as="geometry">
            <mxPoint x="5123.5" y="2857.5" as="sourcePoint" />
            <mxPoint x="5173.5" y="2807.5" as="targetPoint" />
            <Array as="points" />
          </mxGeometry>
        </mxCell>
        <mxCell id="2fcH4yExuOtMv_uIpckA-450" value="" style="endArrow=none;html=1;rounded=1;entryX=0.25;entryY=1;entryDx=0;entryDy=0;entryPerimeter=0;exitX=0;exitY=0.5;exitDx=0;exitDy=0;exitPerimeter=0;edgeStyle=orthogonalEdgeStyle;" edge="1" parent="1" source="2fcH4yExuOtMv_uIpckA-436" target="2fcH4yExuOtMv_uIpckA-404">
          <mxGeometry width="50" height="50" relative="1" as="geometry">
            <mxPoint x="4903.5" y="2747.5" as="sourcePoint" />
            <mxPoint x="4953.5" y="2697.5" as="targetPoint" />
          </mxGeometry>
        </mxCell>
        <mxCell id="2fcH4yExuOtMv_uIpckA-451" value="" style="endArrow=none;html=1;rounded=1;exitX=0.5;exitY=1;exitDx=0;exitDy=0;exitPerimeter=0;entryX=0;entryY=0.5;entryDx=0;entryDy=0;entryPerimeter=0;edgeStyle=orthogonalEdgeStyle;" edge="1" parent="1" source="2fcH4yExuOtMv_uIpckA-436" target="2fcH4yExuOtMv_uIpckA-438">
          <mxGeometry width="50" height="50" relative="1" as="geometry">
            <mxPoint x="5228.5" y="2677.5" as="sourcePoint" />
            <mxPoint x="5278.5" y="2627.5" as="targetPoint" />
          </mxGeometry>
        </mxCell>
        <mxCell id="2fcH4yExuOtMv_uIpckA-452" value="" style="html=1;outlineConnect=0;whiteSpace=wrap;fillColor=#AFFFAF;shape=mxgraph.archimate3.node;" vertex="1" parent="1">
          <mxGeometry x="5073.5" y="2272.5" width="632.5" height="320" as="geometry" />
        </mxCell>
        <mxCell id="2fcH4yExuOtMv_uIpckA-453" value="Данные о пользователе" style="html=1;outlineConnect=0;whiteSpace=wrap;fillColor=#AFFFAF;shape=mxgraph.archimate3.application;appType=artifact;archiType=square;" vertex="1" parent="1">
          <mxGeometry x="5312.5" y="2390" width="93.5" height="52.5" as="geometry" />
        </mxCell>
        <mxCell id="2fcH4yExuOtMv_uIpckA-454" value="Сервер" style="html=1;outlineConnect=0;whiteSpace=wrap;fillColor=#AFFFAF;shape=mxgraph.archimate3.device;" vertex="1" parent="1">
          <mxGeometry x="5092.5" y="2385" width="60" height="45" as="geometry" />
        </mxCell>
        <mxCell id="2fcH4yExuOtMv_uIpckA-455" value="ОС Debian Server" style="html=1;outlineConnect=0;whiteSpace=wrap;fillColor=#AFFFAF;shape=mxgraph.archimate3.application;appType=sysSw;archiType=square;" vertex="1" parent="1">
          <mxGeometry x="5187.5" y="2377.5" width="90" height="60" as="geometry" />
        </mxCell>
        <mxCell id="2fcH4yExuOtMv_uIpckA-456" value="Docker-контейнер PostgreSQL" style="html=1;outlineConnect=0;whiteSpace=wrap;fillColor=#AFFFAF;shape=mxgraph.archimate3.application;appType=sysSw;archiType=square;" vertex="1" parent="1">
          <mxGeometry x="5197.5" y="2450" width="80" height="50" as="geometry" />
        </mxCell>
        <mxCell id="2fcH4yExuOtMv_uIpckA-457" value="Docker-контейнер Redis" style="html=1;outlineConnect=0;whiteSpace=wrap;fillColor=#AFFFAF;shape=mxgraph.archimate3.application;appType=sysSw;archiType=square;" vertex="1" parent="1">
          <mxGeometry x="5088.25" y="2447.5" width="88.5" height="55" as="geometry" />
        </mxCell>
        <mxCell id="2fcH4yExuOtMv_uIpckA-458" value="Сервер БД" style="text;html=1;strokeColor=none;fillColor=none;align=center;verticalAlign=middle;whiteSpace=wrap;rounded=0;" vertex="1" parent="1">
          <mxGeometry x="5366" y="2355" width="110" height="30" as="geometry" />
        </mxCell>
        <mxCell id="2fcH4yExuOtMv_uIpckA-459" value="" style="endArrow=none;html=1;rounded=1;entryX=1;entryY=0.5;entryDx=0;entryDy=0;entryPerimeter=0;exitX=0.25;exitY=1;exitDx=0;exitDy=0;exitPerimeter=0;edgeStyle=orthogonalEdgeStyle;" edge="1" parent="1" source="2fcH4yExuOtMv_uIpckA-452" target="2fcH4yExuOtMv_uIpckA-436">
          <mxGeometry width="50" height="50" relative="1" as="geometry">
            <mxPoint x="5293.5" y="2587.5" as="sourcePoint" />
            <mxPoint x="5343.5" y="2537.5" as="targetPoint" />
          </mxGeometry>
        </mxCell>
        <mxCell id="2fcH4yExuOtMv_uIpckA-460" value="WLAN" style="html=1;outlineConnect=0;whiteSpace=wrap;fillColor=#AFFFAF;shape=mxgraph.archimate3.application;appType=netw;archiType=square;" vertex="1" parent="1">
          <mxGeometry x="5638.5" y="2732.5" width="97.5" height="45" as="geometry" />
        </mxCell>
        <mxCell id="2fcH4yExuOtMv_uIpckA-461" value="" style="endArrow=none;html=1;rounded=0;exitX=0.5;exitY=1;exitDx=0;exitDy=0;exitPerimeter=0;entryX=0.5;entryY=0;entryDx=0;entryDy=0;entryPerimeter=0;" edge="1" parent="1" source="2fcH4yExuOtMv_uIpckA-441" target="2fcH4yExuOtMv_uIpckA-440">
          <mxGeometry width="50" height="50" relative="1" as="geometry">
            <mxPoint x="5553.5" y="2537.5" as="sourcePoint" />
            <mxPoint x="5603.5" y="2487.5" as="targetPoint" />
          </mxGeometry>
        </mxCell>
        <mxCell id="2fcH4yExuOtMv_uIpckA-462" value="" style="edgeStyle=elbowEdgeStyle;html=1;endArrow=block;elbow=vertical;endFill=0;dashed=1;rounded=1;exitX=0.5;exitY=0;exitDx=0;exitDy=0;exitPerimeter=0;entryX=0.5;entryY=1;entryDx=0;entryDy=0;entryPerimeter=0;jumpStyle=arc;jumpSize=15;" edge="1" parent="1" source="2fcH4yExuOtMv_uIpckA-404" target="2fcH4yExuOtMv_uIpckA-412">
          <mxGeometry width="160" relative="1" as="geometry">
            <mxPoint x="5253.5" y="2573" as="sourcePoint" />
            <mxPoint x="5413.5" y="2573" as="targetPoint" />
          </mxGeometry>
        </mxCell>
        <mxCell id="2fcH4yExuOtMv_uIpckA-463" value="" style="edgeStyle=elbowEdgeStyle;html=1;endArrow=block;elbow=vertical;endFill=0;dashed=1;rounded=1;exitX=0.5;exitY=0;exitDx=0;exitDy=0;exitPerimeter=0;entryX=0.5;entryY=1;entryDx=0;entryDy=0;entryPerimeter=0;jumpStyle=arc;jumpSize=15;" edge="1" parent="1" source="2fcH4yExuOtMv_uIpckA-452" target="2fcH4yExuOtMv_uIpckA-420">
          <mxGeometry width="160" relative="1" as="geometry">
            <mxPoint x="5309.5" y="2573" as="sourcePoint" />
            <mxPoint x="5494" y="2235" as="targetPoint" />
            <Array as="points">
              <mxPoint x="5420" y="2260" />
            </Array>
          </mxGeometry>
        </mxCell>
        <mxCell id="2fcH4yExuOtMv_uIpckA-465" value="Данные о предпочтениях пользователя" style="html=1;outlineConnect=0;whiteSpace=wrap;fillColor=#AFFFAF;shape=mxgraph.archimate3.application;appType=artifact;archiType=square;" vertex="1" parent="1">
          <mxGeometry x="5312.5" y="2457.5" width="101" height="56" as="geometry" />
        </mxCell>
        <mxCell id="2fcH4yExuOtMv_uIpckA-466" style="edgeStyle=orthogonalEdgeStyle;rounded=0;orthogonalLoop=1;jettySize=auto;html=1;exitX=0.5;exitY=1;exitDx=0;exitDy=0;exitPerimeter=0;entryX=0.5;entryY=0;entryDx=0;entryDy=0;entryPerimeter=0;startArrow=oval;startFill=1;" edge="1" parent="1" source="2fcH4yExuOtMv_uIpckA-467">
          <mxGeometry relative="1" as="geometry">
            <mxPoint x="4850.5" y="773" as="targetPoint" />
          </mxGeometry>
        </mxCell>
        <mxCell id="2fcH4yExuOtMv_uIpckA-467" value="Эксперт приложения" style="html=1;outlineConnect=0;whiteSpace=wrap;fillColor=#ffff99;shape=mxgraph.archimate3.application;appType=role;archiType=square;" vertex="1" parent="1">
          <mxGeometry x="5357.5" y="641" width="150" height="75" as="geometry" />
        </mxCell>
        <mxCell id="2fcH4yExuOtMv_uIpckA-469" value="Просмотр профиля пользователя&lt;br&gt;&lt;br&gt;&lt;br&gt;&lt;br&gt;&lt;br&gt;&lt;br&gt;&lt;br&gt;&lt;br&gt;&lt;br&gt;&lt;br&gt;&lt;br&gt;&lt;br&gt;&lt;br&gt;&lt;br&gt;&lt;br&gt;&lt;br&gt;&lt;br&gt;&lt;br&gt;&lt;br&gt;&lt;br&gt;&lt;br&gt;&lt;br&gt;&lt;br&gt;&lt;br&gt;&lt;br&gt;" style="html=1;outlineConnect=0;whiteSpace=wrap;fillColor=#ffff99;shape=mxgraph.archimate3.application;appType=func;archiType=rounded;" vertex="1" parent="1">
          <mxGeometry x="4702.5" y="824" width="285" height="386" as="geometry" />
        </mxCell>
        <mxCell id="2fcH4yExuOtMv_uIpckA-470" value="Блокировка пользователя&lt;br&gt;&lt;br&gt;&lt;br&gt;&lt;br&gt;&lt;br&gt;&lt;br&gt;&lt;br&gt;&lt;br&gt;&lt;br&gt;&lt;br&gt;&lt;br&gt;&lt;br&gt;&lt;br&gt;&lt;br&gt;&lt;br&gt;&lt;br&gt;&lt;br&gt;" style="html=1;outlineConnect=0;whiteSpace=wrap;fillColor=#ffff99;shape=mxgraph.archimate3.application;appType=func;archiType=rounded;" vertex="1" parent="1">
          <mxGeometry x="5015" y="825" width="244" height="276" as="geometry" />
        </mxCell>
        <mxCell id="2fcH4yExuOtMv_uIpckA-471" value="Внесение изменений в аккаунт пользователя&lt;br&gt;&lt;br&gt;&lt;br&gt;&lt;br&gt;&lt;br&gt;&lt;br&gt;&lt;br&gt;&lt;br&gt;&lt;br&gt;&lt;br&gt;&lt;br&gt;&lt;br&gt;&lt;br&gt;&lt;br&gt;&lt;br&gt;&lt;br&gt;&lt;br&gt;&lt;br&gt;&lt;br&gt;&lt;br&gt;&lt;br&gt;&lt;br&gt;&lt;br&gt;&lt;br&gt;&lt;br&gt;" style="html=1;outlineConnect=0;whiteSpace=wrap;fillColor=#ffff99;shape=mxgraph.archimate3.application;appType=func;archiType=rounded;" vertex="1" parent="1">
          <mxGeometry x="4300.5" y="820" width="377" height="390" as="geometry" />
        </mxCell>
        <mxCell id="2fcH4yExuOtMv_uIpckA-472" value="" style="edgeStyle=orthogonalEdgeStyle;rounded=1;orthogonalLoop=1;jettySize=auto;html=1;dashed=1;endArrow=open;endFill=0;entryX=0.25;entryY=0;entryDx=0;entryDy=0;entryPerimeter=0;" edge="1" parent="1" source="2fcH4yExuOtMv_uIpckA-474" target="2fcH4yExuOtMv_uIpckA-478">
          <mxGeometry relative="1" as="geometry" />
        </mxCell>
        <mxCell id="2fcH4yExuOtMv_uIpckA-473" style="edgeStyle=orthogonalEdgeStyle;rounded=1;orthogonalLoop=1;jettySize=auto;html=1;exitX=0.25;exitY=1;exitDx=0;exitDy=0;exitPerimeter=0;entryX=0;entryY=0.25;entryDx=0;entryDy=0;entryPerimeter=0;endArrow=block;endFill=1;" edge="1" parent="1" source="2fcH4yExuOtMv_uIpckA-474" target="2fcH4yExuOtMv_uIpckA-500">
          <mxGeometry relative="1" as="geometry" />
        </mxCell>
        <mxCell id="2fcH4yExuOtMv_uIpckA-474" value="Просмотр данных пользователя" style="html=1;outlineConnect=0;whiteSpace=wrap;fillColor=#ffff99;shape=mxgraph.archimate3.application;appType=proc;archiType=rounded;" vertex="1" parent="1">
          <mxGeometry x="4716.5" y="862.5" width="87" height="66" as="geometry" />
        </mxCell>
        <mxCell id="2fcH4yExuOtMv_uIpckA-475" value="" style="edgeStyle=orthogonalEdgeStyle;rounded=1;orthogonalLoop=1;jettySize=auto;html=1;dashed=1;endArrow=open;endFill=0;entryX=0.75;entryY=0;entryDx=0;entryDy=0;entryPerimeter=0;" edge="1" parent="1" source="2fcH4yExuOtMv_uIpckA-477" target="2fcH4yExuOtMv_uIpckA-478">
          <mxGeometry relative="1" as="geometry" />
        </mxCell>
        <mxCell id="2fcH4yExuOtMv_uIpckA-476" style="edgeStyle=orthogonalEdgeStyle;rounded=1;orthogonalLoop=1;jettySize=auto;html=1;exitX=0.75;exitY=1;exitDx=0;exitDy=0;exitPerimeter=0;entryX=1;entryY=0.25;entryDx=0;entryDy=0;entryPerimeter=0;endArrow=block;endFill=1;" edge="1" parent="1" source="2fcH4yExuOtMv_uIpckA-477" target="2fcH4yExuOtMv_uIpckA-500">
          <mxGeometry relative="1" as="geometry" />
        </mxCell>
        <mxCell id="2fcH4yExuOtMv_uIpckA-477" value="Просмотр аккаунта пользователя" style="html=1;outlineConnect=0;whiteSpace=wrap;fillColor=#ffff99;shape=mxgraph.archimate3.application;appType=proc;archiType=rounded;" vertex="1" parent="1">
          <mxGeometry x="4863.5" y="862.5" width="89" height="66" as="geometry" />
        </mxCell>
        <mxCell id="2fcH4yExuOtMv_uIpckA-478" value="&lt;br&gt;Данные об аккаунте пользователя" style="html=1;outlineConnect=0;whiteSpace=wrap;fillColor=#ffff99;shape=mxgraph.archimate3.businessObject;overflow=fill;" vertex="1" parent="1">
          <mxGeometry x="4797.5" y="963" width="94" height="60" as="geometry" />
        </mxCell>
        <mxCell id="2fcH4yExuOtMv_uIpckA-479" style="edgeStyle=orthogonalEdgeStyle;rounded=0;orthogonalLoop=1;jettySize=auto;html=1;exitX=0.5;exitY=1;exitDx=0;exitDy=0;exitPerimeter=0;entryX=0.5;entryY=0;entryDx=0;entryDy=0;entryPerimeter=0;dashed=1;endArrow=open;endFill=0;" edge="1" parent="1" source="2fcH4yExuOtMv_uIpckA-480" target="2fcH4yExuOtMv_uIpckA-482">
          <mxGeometry relative="1" as="geometry" />
        </mxCell>
        <mxCell id="2fcH4yExuOtMv_uIpckA-480" value="Ввод причины блокировки" style="html=1;outlineConnect=0;whiteSpace=wrap;fillColor=#ffff99;shape=mxgraph.archimate3.application;appType=proc;archiType=rounded;" vertex="1" parent="1">
          <mxGeometry x="5172.5" y="860.5" width="73" height="66" as="geometry" />
        </mxCell>
        <mxCell id="2fcH4yExuOtMv_uIpckA-481" style="edgeStyle=orthogonalEdgeStyle;rounded=0;orthogonalLoop=1;jettySize=auto;html=1;exitX=0;exitY=0.5;exitDx=0;exitDy=0;exitPerimeter=0;entryX=1;entryY=0.5;entryDx=0;entryDy=0;entryPerimeter=0;endArrow=none;endFill=0;" edge="1" parent="1" source="2fcH4yExuOtMv_uIpckA-482" target="2fcH4yExuOtMv_uIpckA-486">
          <mxGeometry relative="1" as="geometry" />
        </mxCell>
        <mxCell id="2fcH4yExuOtMv_uIpckA-482" value="&lt;table cellpadding=&quot;0&quot; cellspacing=&quot;0&quot; style=&quot;font-size:1em;width:100%;height:100%;&quot;&gt;&lt;tbody&gt;&lt;tr style=&quot;height:20px;&quot;&gt;&lt;td align=&quot;center&quot;&gt;&lt;/td&gt;&lt;/tr&gt;&lt;tr&gt;&lt;td align=&quot;left&quot; valign=&quot;top&quot; style=&quot;padding:4px;&quot;&gt;Данные о причине блокировки&lt;/td&gt;&lt;/tr&gt;&lt;/tbody&gt;&lt;/table&gt;" style="html=1;outlineConnect=0;whiteSpace=wrap;fillColor=#ffff99;shape=mxgraph.archimate3.businessObject;overflow=fill;" vertex="1" parent="1">
          <mxGeometry x="5171.5" y="969" width="74" height="81" as="geometry" />
        </mxCell>
        <mxCell id="2fcH4yExuOtMv_uIpckA-483" style="edgeStyle=orthogonalEdgeStyle;rounded=0;orthogonalLoop=1;jettySize=auto;html=1;exitX=0.5;exitY=1;exitDx=0;exitDy=0;exitPerimeter=0;entryX=0.5;entryY=0;entryDx=0;entryDy=0;entryPerimeter=0;dashed=1;endArrow=open;endFill=0;" edge="1" parent="1" source="2fcH4yExuOtMv_uIpckA-485" target="2fcH4yExuOtMv_uIpckA-486">
          <mxGeometry relative="1" as="geometry" />
        </mxCell>
        <mxCell id="2fcH4yExuOtMv_uIpckA-484" style="edgeStyle=orthogonalEdgeStyle;rounded=0;orthogonalLoop=1;jettySize=auto;html=1;exitX=1;exitY=0.5;exitDx=0;exitDy=0;exitPerimeter=0;entryX=0;entryY=0.5;entryDx=0;entryDy=0;entryPerimeter=0;endArrow=block;endFill=1;" edge="1" parent="1" source="2fcH4yExuOtMv_uIpckA-485" target="2fcH4yExuOtMv_uIpckA-480">
          <mxGeometry relative="1" as="geometry" />
        </mxCell>
        <mxCell id="2fcH4yExuOtMv_uIpckA-485" value="Блокировка аккаунта пользователя" style="html=1;outlineConnect=0;whiteSpace=wrap;fillColor=#ffff99;shape=mxgraph.archimate3.application;appType=proc;archiType=rounded;" vertex="1" parent="1">
          <mxGeometry x="5021.5" y="860.5" width="110" height="66" as="geometry" />
        </mxCell>
        <mxCell id="2fcH4yExuOtMv_uIpckA-486" value="&lt;table cellpadding=&quot;0&quot; cellspacing=&quot;0&quot; style=&quot;font-size:1em;width:100%;height:100%;&quot;&gt;&lt;tbody&gt;&lt;tr style=&quot;height:20px;&quot;&gt;&lt;td align=&quot;center&quot;&gt;&lt;/td&gt;&lt;/tr&gt;&lt;tr&gt;&lt;td align=&quot;left&quot; valign=&quot;top&quot; style=&quot;padding:4px;&quot;&gt;Данные о блокировке пользователя&lt;/td&gt;&lt;/tr&gt;&lt;/tbody&gt;&lt;/table&gt;" style="html=1;outlineConnect=0;whiteSpace=wrap;fillColor=#ffff99;shape=mxgraph.archimate3.businessObject;overflow=fill;" vertex="1" parent="1">
          <mxGeometry x="5036.5" y="969" width="80" height="81" as="geometry" />
        </mxCell>
        <mxCell id="2fcH4yExuOtMv_uIpckA-487" style="edgeStyle=orthogonalEdgeStyle;rounded=0;orthogonalLoop=1;jettySize=auto;html=1;exitX=0.5;exitY=1;exitDx=0;exitDy=0;exitPerimeter=0;entryX=0.5;entryY=0;entryDx=0;entryDy=0;entryPerimeter=0;dashed=1;endArrow=open;endFill=0;" edge="1" parent="1" source="2fcH4yExuOtMv_uIpckA-488" target="2fcH4yExuOtMv_uIpckA-489">
          <mxGeometry relative="1" as="geometry" />
        </mxCell>
        <mxCell id="2fcH4yExuOtMv_uIpckA-488" value="Внесение изменений в аккаунт пользователя" style="html=1;outlineConnect=0;whiteSpace=wrap;fillColor=#ffff99;shape=mxgraph.archimate3.application;appType=proc;archiType=rounded;" vertex="1" parent="1">
          <mxGeometry x="4570.5" y="856" width="94" height="75" as="geometry" />
        </mxCell>
        <mxCell id="2fcH4yExuOtMv_uIpckA-489" value="&lt;table cellpadding=&quot;0&quot; cellspacing=&quot;0&quot; style=&quot;font-size:1em;width:100%;height:100%;&quot;&gt;&lt;tbody&gt;&lt;tr style=&quot;height:20px;&quot;&gt;&lt;td align=&quot;center&quot;&gt;&lt;/td&gt;&lt;/tr&gt;&lt;tr&gt;&lt;td align=&quot;left&quot; valign=&quot;top&quot; style=&quot;padding:4px;&quot;&gt;Данные о внесении изменений в аккаунт пользователя&lt;/td&gt;&lt;/tr&gt;&lt;/tbody&gt;&lt;/table&gt;" style="html=1;outlineConnect=0;whiteSpace=wrap;fillColor=#ffff99;shape=mxgraph.archimate3.businessObject;overflow=fill;" vertex="1" parent="1">
          <mxGeometry x="4570.5" y="954.5" width="94" height="99" as="geometry" />
        </mxCell>
        <mxCell id="2fcH4yExuOtMv_uIpckA-490" value="" style="edgeStyle=orthogonalEdgeStyle;rounded=0;orthogonalLoop=1;jettySize=auto;html=1;dashed=1;endArrow=open;endFill=0;" edge="1" parent="1" source="2fcH4yExuOtMv_uIpckA-492" target="2fcH4yExuOtMv_uIpckA-493">
          <mxGeometry relative="1" as="geometry" />
        </mxCell>
        <mxCell id="2fcH4yExuOtMv_uIpckA-491" value="" style="edgeStyle=orthogonalEdgeStyle;rounded=0;orthogonalLoop=1;jettySize=auto;html=1;endArrow=block;endFill=1;" edge="1" parent="1" source="2fcH4yExuOtMv_uIpckA-492" target="2fcH4yExuOtMv_uIpckA-496">
          <mxGeometry relative="1" as="geometry" />
        </mxCell>
        <mxCell id="2fcH4yExuOtMv_uIpckA-492" value="Уведомление пользователя о нарушении" style="html=1;outlineConnect=0;whiteSpace=wrap;fillColor=#ffff99;shape=mxgraph.archimate3.application;appType=proc;archiType=rounded;" vertex="1" parent="1">
          <mxGeometry x="4317.5" y="857" width="107" height="75" as="geometry" />
        </mxCell>
        <mxCell id="2fcH4yExuOtMv_uIpckA-493" value="&lt;table cellpadding=&quot;0&quot; cellspacing=&quot;0&quot; style=&quot;font-size:1em;width:100%;height:100%;&quot;&gt;&lt;tbody&gt;&lt;tr style=&quot;height:20px;&quot;&gt;&lt;td align=&quot;center&quot;&gt;&lt;/td&gt;&lt;/tr&gt;&lt;tr&gt;&lt;td align=&quot;left&quot; valign=&quot;top&quot; style=&quot;padding:4px;&quot;&gt;Данные о нарушении&lt;/td&gt;&lt;/tr&gt;&lt;/tbody&gt;&lt;/table&gt;" style="html=1;outlineConnect=0;whiteSpace=wrap;fillColor=#ffff99;shape=mxgraph.archimate3.businessObject;overflow=fill;" vertex="1" parent="1">
          <mxGeometry x="4317.5" y="969" width="107" height="75" as="geometry" />
        </mxCell>
        <mxCell id="2fcH4yExuOtMv_uIpckA-494" value="" style="edgeStyle=orthogonalEdgeStyle;rounded=0;orthogonalLoop=1;jettySize=auto;html=1;endArrow=block;endFill=1;" edge="1" parent="1" source="2fcH4yExuOtMv_uIpckA-496" target="2fcH4yExuOtMv_uIpckA-488">
          <mxGeometry relative="1" as="geometry" />
        </mxCell>
        <mxCell id="2fcH4yExuOtMv_uIpckA-495" style="edgeStyle=orthogonalEdgeStyle;rounded=0;orthogonalLoop=1;jettySize=auto;html=1;exitX=0.5;exitY=1;exitDx=0;exitDy=0;exitPerimeter=0;entryX=0.5;entryY=0;entryDx=0;entryDy=0;entryPerimeter=0;dashed=1;endArrow=open;endFill=0;" edge="1" parent="1" source="2fcH4yExuOtMv_uIpckA-496" target="2fcH4yExuOtMv_uIpckA-508">
          <mxGeometry relative="1" as="geometry" />
        </mxCell>
        <mxCell id="2fcH4yExuOtMv_uIpckA-496" value="Проверка исправления нарушений" style="html=1;outlineConnect=0;whiteSpace=wrap;fillColor=#ffff99;shape=mxgraph.archimate3.application;appType=proc;archiType=rounded;" vertex="1" parent="1">
          <mxGeometry x="4453.5" y="856" width="95" height="75" as="geometry" />
        </mxCell>
        <mxCell id="2fcH4yExuOtMv_uIpckA-497" style="edgeStyle=orthogonalEdgeStyle;rounded=0;orthogonalLoop=1;jettySize=auto;html=1;exitX=0.5;exitY=1;exitDx=0;exitDy=0;exitPerimeter=0;entryX=0.5;entryY=0;entryDx=0;entryDy=0;entryPerimeter=0;dashed=1;endArrow=open;endFill=0;" edge="1" parent="1" source="2fcH4yExuOtMv_uIpckA-500" target="2fcH4yExuOtMv_uIpckA-501">
          <mxGeometry relative="1" as="geometry" />
        </mxCell>
        <mxCell id="2fcH4yExuOtMv_uIpckA-498" style="edgeStyle=orthogonalEdgeStyle;rounded=0;orthogonalLoop=1;jettySize=auto;html=1;exitX=0;exitY=0.75;exitDx=0;exitDy=0;exitPerimeter=0;endArrow=block;endFill=1;" edge="1" parent="1" source="2fcH4yExuOtMv_uIpckA-500">
          <mxGeometry relative="1" as="geometry">
            <mxPoint x="4677.5" y="1100" as="targetPoint" />
            <Array as="points">
              <mxPoint x="4802.5" y="1100" />
              <mxPoint x="4677.5" y="1100" />
            </Array>
          </mxGeometry>
        </mxCell>
        <mxCell id="2fcH4yExuOtMv_uIpckA-499" style="edgeStyle=orthogonalEdgeStyle;rounded=0;orthogonalLoop=1;jettySize=auto;html=1;exitX=1;exitY=0.75;exitDx=0;exitDy=0;exitPerimeter=0;endArrow=block;endFill=1;entryX=0;entryY=0.75;entryDx=0;entryDy=0;entryPerimeter=0;" edge="1" parent="1" source="2fcH4yExuOtMv_uIpckA-500" target="2fcH4yExuOtMv_uIpckA-470">
          <mxGeometry relative="1" as="geometry">
            <mxPoint x="5365.5" y="1175" as="targetPoint" />
            <Array as="points">
              <mxPoint x="4957.5" y="1097" />
              <mxPoint x="4957.5" y="1032" />
            </Array>
          </mxGeometry>
        </mxCell>
        <mxCell id="2fcH4yExuOtMv_uIpckA-500" value="Решение об аккаунте пользователя" style="html=1;outlineConnect=0;whiteSpace=wrap;fillColor=#ffff99;shape=mxgraph.archimate3.application;appType=proc;archiType=rounded;" vertex="1" parent="1">
          <mxGeometry x="4802.5" y="1036" width="84" height="81" as="geometry" />
        </mxCell>
        <mxCell id="2fcH4yExuOtMv_uIpckA-501" value="&lt;table cellpadding=&quot;0&quot; cellspacing=&quot;0&quot; style=&quot;font-size:1em;width:100%;height:100%;&quot;&gt;&lt;tbody&gt;&lt;tr style=&quot;height:20px;&quot;&gt;&lt;td align=&quot;center&quot;&gt;&lt;/td&gt;&lt;/tr&gt;&lt;tr&gt;&lt;td align=&quot;left&quot; valign=&quot;top&quot; style=&quot;padding:4px;&quot;&gt;Данные о решении&lt;/td&gt;&lt;/tr&gt;&lt;/tbody&gt;&lt;/table&gt;" style="html=1;outlineConnect=0;whiteSpace=wrap;fillColor=#ffff99;shape=mxgraph.archimate3.businessObject;overflow=fill;" vertex="1" parent="1">
          <mxGeometry x="4812" y="1140" width="65" height="53" as="geometry" />
        </mxCell>
        <mxCell id="2fcH4yExuOtMv_uIpckA-502" style="edgeStyle=orthogonalEdgeStyle;rounded=1;orthogonalLoop=1;jettySize=auto;html=1;exitX=0.5;exitY=0;exitDx=0;exitDy=0;exitPerimeter=0;entryX=0.25;entryY=1;entryDx=0;entryDy=0;entryPerimeter=0;endArrow=open;endFill=0;" edge="1" parent="1" source="2fcH4yExuOtMv_uIpckA-503" target="2fcH4yExuOtMv_uIpckA-471">
          <mxGeometry relative="1" as="geometry" />
        </mxCell>
        <mxCell id="2fcH4yExuOtMv_uIpckA-503" value="Сервис уведомления пользователя о нарушении" style="html=1;outlineConnect=0;whiteSpace=wrap;fillColor=#99ffff;shape=mxgraph.archimate3.application;appType=serv;archiType=rounded" vertex="1" parent="1">
          <mxGeometry x="4272.5" y="1294" width="125" height="76" as="geometry" />
        </mxCell>
        <mxCell id="2fcH4yExuOtMv_uIpckA-504" style="edgeStyle=orthogonalEdgeStyle;rounded=0;orthogonalLoop=1;jettySize=auto;html=1;exitX=0.5;exitY=0;exitDx=0;exitDy=0;exitPerimeter=0;endArrow=open;endFill=0;" edge="1" parent="1" source="2fcH4yExuOtMv_uIpckA-505" target="2fcH4yExuOtMv_uIpckA-471">
          <mxGeometry relative="1" as="geometry">
            <Array as="points">
              <mxPoint x="4487.5" y="1295" />
              <mxPoint x="4487.5" y="1320" />
              <mxPoint x="4489.5" y="1320" />
            </Array>
          </mxGeometry>
        </mxCell>
        <mxCell id="2fcH4yExuOtMv_uIpckA-505" value="Сервис проверки исправления нарушений" style="html=1;outlineConnect=0;whiteSpace=wrap;fillColor=#99ffff;shape=mxgraph.archimate3.application;appType=serv;archiType=rounded" vertex="1" parent="1">
          <mxGeometry x="4426" y="1295" width="101.5" height="75" as="geometry" />
        </mxCell>
        <mxCell id="2fcH4yExuOtMv_uIpckA-506" style="edgeStyle=orthogonalEdgeStyle;rounded=1;orthogonalLoop=1;jettySize=auto;html=1;exitX=0.5;exitY=0;exitDx=0;exitDy=0;exitPerimeter=0;endArrow=open;endFill=0;" edge="1" parent="1" source="2fcH4yExuOtMv_uIpckA-507" target="2fcH4yExuOtMv_uIpckA-471">
          <mxGeometry relative="1" as="geometry">
            <Array as="points">
              <mxPoint x="4627.5" y="1295" />
            </Array>
          </mxGeometry>
        </mxCell>
        <mxCell id="2fcH4yExuOtMv_uIpckA-507" value="Сервис внесения изменений в аккаунт пользователя" style="html=1;outlineConnect=0;whiteSpace=wrap;fillColor=#99ffff;shape=mxgraph.archimate3.application;appType=serv;archiType=rounded" vertex="1" parent="1">
          <mxGeometry x="4566.5" y="1295" width="91" height="75" as="geometry" />
        </mxCell>
        <mxCell id="2fcH4yExuOtMv_uIpckA-508" value="&lt;table cellpadding=&quot;0&quot; cellspacing=&quot;0&quot; style=&quot;font-size:1em;width:100%;height:100%;&quot;&gt;&lt;tbody&gt;&lt;tr style=&quot;height:20px;&quot;&gt;&lt;td align=&quot;center&quot;&gt;&lt;/td&gt;&lt;/tr&gt;&lt;tr&gt;&lt;td align=&quot;left&quot; valign=&quot;top&quot; style=&quot;padding:4px;&quot;&gt;Данные об исправлении&lt;/td&gt;&lt;/tr&gt;&lt;/tbody&gt;&lt;/table&gt;" style="html=1;outlineConnect=0;whiteSpace=wrap;fillColor=#ffff99;shape=mxgraph.archimate3.businessObject;overflow=fill;" vertex="1" parent="1">
          <mxGeometry x="4458.5" y="969" width="85" height="75" as="geometry" />
        </mxCell>
        <mxCell id="2fcH4yExuOtMv_uIpckA-509" style="edgeStyle=orthogonalEdgeStyle;rounded=0;orthogonalLoop=1;jettySize=auto;html=1;exitX=0.5;exitY=0;exitDx=0;exitDy=0;exitPerimeter=0;endArrow=open;endFill=0;" edge="1" parent="1" source="2fcH4yExuOtMv_uIpckA-510" target="2fcH4yExuOtMv_uIpckA-470">
          <mxGeometry relative="1" as="geometry" />
        </mxCell>
        <mxCell id="2fcH4yExuOtMv_uIpckA-510" value="Сервис блокировки пользователя" style="html=1;outlineConnect=0;whiteSpace=wrap;fillColor=#99ffff;shape=mxgraph.archimate3.application;appType=serv;archiType=rounded" vertex="1" parent="1">
          <mxGeometry x="5266.75" y="1305" width="85.5" height="77" as="geometry" />
        </mxCell>
        <mxCell id="2fcH4yExuOtMv_uIpckA-513" style="edgeStyle=orthogonalEdgeStyle;rounded=0;orthogonalLoop=1;jettySize=auto;html=1;exitX=0.5;exitY=0;exitDx=0;exitDy=0;exitPerimeter=0;entryX=0.5;entryY=1;entryDx=0;entryDy=0;entryPerimeter=0;dashed=1;endArrow=block;endFill=0;" edge="1" parent="1" source="2fcH4yExuOtMv_uIpckA-514" target="2fcH4yExuOtMv_uIpckA-503">
          <mxGeometry relative="1" as="geometry" />
        </mxCell>
        <mxCell id="2fcH4yExuOtMv_uIpckA-514" value="Уведомление пользователя о нарушении&lt;br&gt;&lt;br&gt;&lt;br&gt;&lt;br&gt;&lt;br&gt;&lt;br&gt;&lt;br&gt;&lt;br&gt;&lt;br&gt;&lt;br&gt;&lt;br&gt;&lt;br&gt;" style="html=1;outlineConnect=0;whiteSpace=wrap;fillColor=#99ffff;shape=mxgraph.archimate3.application;appType=comp;archiType=square;" vertex="1" parent="1">
          <mxGeometry x="4270" y="1437" width="130" height="223" as="geometry" />
        </mxCell>
        <mxCell id="2fcH4yExuOtMv_uIpckA-515" value="" style="edgeStyle=orthogonalEdgeStyle;rounded=0;orthogonalLoop=1;jettySize=auto;html=1;dashed=1;endArrow=open;endFill=0;" edge="1" parent="1" source="2fcH4yExuOtMv_uIpckA-516" target="2fcH4yExuOtMv_uIpckA-517">
          <mxGeometry relative="1" as="geometry" />
        </mxCell>
        <mxCell id="2fcH4yExuOtMv_uIpckA-516" value="Уведомление пользователя о нарушении" style="html=1;outlineConnect=0;whiteSpace=wrap;fillColor=#99ffff;shape=mxgraph.archimate3.application;appType=func;archiType=rounded;" vertex="1" parent="1">
          <mxGeometry x="4285" y="1497" width="95" height="73" as="geometry" />
        </mxCell>
        <mxCell id="2fcH4yExuOtMv_uIpckA-517" value="&lt;table cellpadding=&quot;0&quot; cellspacing=&quot;0&quot; style=&quot;font-size:1em;width:100%;height:100%;&quot;&gt;&lt;tbody&gt;&lt;tr style=&quot;height:20px;&quot;&gt;&lt;td align=&quot;center&quot;&gt;&lt;/td&gt;&lt;/tr&gt;&lt;tr&gt;&lt;td align=&quot;left&quot; valign=&quot;top&quot; style=&quot;padding:4px;&quot;&gt;Данные о нарушении&lt;/td&gt;&lt;/tr&gt;&lt;/tbody&gt;&lt;/table&gt;" style="html=1;outlineConnect=0;whiteSpace=wrap;fillColor=#99ffff;shape=mxgraph.archimate3.businessObject;overflow=fill" vertex="1" parent="1">
          <mxGeometry x="4289.5" y="1590" width="85" height="61" as="geometry" />
        </mxCell>
        <mxCell id="2fcH4yExuOtMv_uIpckA-518" style="edgeStyle=orthogonalEdgeStyle;rounded=0;orthogonalLoop=1;jettySize=auto;html=1;exitX=0.5;exitY=0;exitDx=0;exitDy=0;exitPerimeter=0;entryX=0.5;entryY=1;entryDx=0;entryDy=0;entryPerimeter=0;dashed=1;endArrow=block;endFill=0;" edge="1" parent="1" source="2fcH4yExuOtMv_uIpckA-519" target="2fcH4yExuOtMv_uIpckA-505">
          <mxGeometry relative="1" as="geometry" />
        </mxCell>
        <mxCell id="2fcH4yExuOtMv_uIpckA-519" value="Проверка исправления нарушений&lt;br&gt;&lt;br&gt;&lt;br&gt;&lt;br&gt;&lt;br&gt;&lt;br&gt;&lt;br&gt;&lt;br&gt;&lt;br&gt;&lt;br&gt;&lt;br&gt;&lt;br&gt;" style="html=1;outlineConnect=0;whiteSpace=wrap;fillColor=#99ffff;shape=mxgraph.archimate3.application;appType=comp;archiType=square;" vertex="1" parent="1">
          <mxGeometry x="4418.5" y="1437" width="116.5" height="223" as="geometry" />
        </mxCell>
        <mxCell id="2fcH4yExuOtMv_uIpckA-520" value="" style="edgeStyle=orthogonalEdgeStyle;rounded=0;orthogonalLoop=1;jettySize=auto;html=1;dashed=1;endArrow=open;endFill=0;" edge="1" parent="1" source="2fcH4yExuOtMv_uIpckA-521" target="2fcH4yExuOtMv_uIpckA-522">
          <mxGeometry relative="1" as="geometry" />
        </mxCell>
        <mxCell id="2fcH4yExuOtMv_uIpckA-521" value="Проверка исправления нарушений" style="html=1;outlineConnect=0;whiteSpace=wrap;fillColor=#99ffff;shape=mxgraph.archimate3.application;appType=func;archiType=rounded;" vertex="1" parent="1">
          <mxGeometry x="4430.5" y="1494" width="89" height="73" as="geometry" />
        </mxCell>
        <mxCell id="2fcH4yExuOtMv_uIpckA-522" value="&lt;table cellpadding=&quot;0&quot; cellspacing=&quot;0&quot; style=&quot;font-size:1em;width:100%;height:100%;&quot;&gt;&lt;tbody&gt;&lt;tr style=&quot;height:20px;&quot;&gt;&lt;td align=&quot;center&quot;&gt;&lt;/td&gt;&lt;/tr&gt;&lt;tr&gt;&lt;td align=&quot;left&quot; valign=&quot;top&quot; style=&quot;padding:4px;&quot;&gt;Данные об исправлении&lt;/td&gt;&lt;/tr&gt;&lt;/tbody&gt;&lt;/table&gt;" style="html=1;outlineConnect=0;whiteSpace=wrap;fillColor=#99ffff;shape=mxgraph.archimate3.businessObject;overflow=fill" vertex="1" parent="1">
          <mxGeometry x="4430.5" y="1589" width="89" height="62" as="geometry" />
        </mxCell>
        <mxCell id="2fcH4yExuOtMv_uIpckA-523" style="edgeStyle=orthogonalEdgeStyle;rounded=0;orthogonalLoop=1;jettySize=auto;html=1;exitX=0.5;exitY=0;exitDx=0;exitDy=0;exitPerimeter=0;entryX=0.5;entryY=1;entryDx=0;entryDy=0;entryPerimeter=0;dashed=1;endArrow=block;endFill=0;targetPerimeterSpacing=0;" edge="1" parent="1" source="2fcH4yExuOtMv_uIpckA-524" target="2fcH4yExuOtMv_uIpckA-507">
          <mxGeometry relative="1" as="geometry" />
        </mxCell>
        <mxCell id="2fcH4yExuOtMv_uIpckA-524" value="Внесение изменений в аккаунт пользователя&lt;br&gt;&lt;br&gt;&lt;br&gt;&lt;br&gt;&lt;br&gt;&lt;br&gt;&lt;br&gt;&lt;br&gt;&lt;br&gt;&lt;br&gt;&lt;br&gt;&lt;br&gt;&lt;br&gt;&lt;br&gt;&lt;br&gt;&lt;br&gt;&lt;br&gt;" style="html=1;outlineConnect=0;whiteSpace=wrap;fillColor=#99ffff;shape=mxgraph.archimate3.application;appType=comp;archiType=square;" vertex="1" parent="1">
          <mxGeometry x="4555.5" y="1437" width="113" height="303" as="geometry" />
        </mxCell>
        <mxCell id="2fcH4yExuOtMv_uIpckA-525" value="" style="edgeStyle=orthogonalEdgeStyle;rounded=0;orthogonalLoop=1;jettySize=auto;html=1;dashed=1;endArrow=open;endFill=0;" edge="1" parent="1" source="2fcH4yExuOtMv_uIpckA-526" target="2fcH4yExuOtMv_uIpckA-527">
          <mxGeometry relative="1" as="geometry" />
        </mxCell>
        <mxCell id="2fcH4yExuOtMv_uIpckA-526" value="Внесение изменений в аккаунт пользователя" style="html=1;outlineConnect=0;whiteSpace=wrap;fillColor=#99ffff;shape=mxgraph.archimate3.application;appType=func;archiType=rounded;" vertex="1" parent="1">
          <mxGeometry x="4566.5" y="1507.5" width="88" height="93" as="geometry" />
        </mxCell>
        <mxCell id="2fcH4yExuOtMv_uIpckA-527" value="&lt;table cellpadding=&quot;0&quot; cellspacing=&quot;0&quot; style=&quot;font-size:1em;width:100%;height:100%;&quot;&gt;&lt;tbody&gt;&lt;tr style=&quot;height:20px;&quot;&gt;&lt;td align=&quot;center&quot;&gt;&lt;/td&gt;&lt;/tr&gt;&lt;tr&gt;&lt;td align=&quot;left&quot; valign=&quot;top&quot; style=&quot;padding:4px;&quot;&gt;Данные о внесении изменений в аккаунт пользователя&lt;/td&gt;&lt;/tr&gt;&lt;/tbody&gt;&lt;/table&gt;" style="html=1;outlineConnect=0;whiteSpace=wrap;fillColor=#99ffff;shape=mxgraph.archimate3.businessObject;overflow=fill" vertex="1" parent="1">
          <mxGeometry x="4566.5" y="1627" width="88" height="102" as="geometry" />
        </mxCell>
        <mxCell id="2fcH4yExuOtMv_uIpckA-528" style="edgeStyle=orthogonalEdgeStyle;rounded=0;orthogonalLoop=1;jettySize=auto;html=1;entryX=0.5;entryY=1;entryDx=0;entryDy=0;entryPerimeter=0;dashed=1;endArrow=block;endFill=0;" edge="1" parent="1" source="2fcH4yExuOtMv_uIpckA-530" target="2fcH4yExuOtMv_uIpckA-510">
          <mxGeometry relative="1" as="geometry">
            <Array as="points">
              <mxPoint x="5354.5" y="1400" />
              <mxPoint x="5309.5" y="1400" />
            </Array>
          </mxGeometry>
        </mxCell>
        <mxCell id="2fcH4yExuOtMv_uIpckA-530" value="Блокировка пользователя&lt;br&gt;&lt;br&gt;&lt;br&gt;&lt;br&gt;&lt;br&gt;&lt;br&gt;&lt;br&gt;&lt;br&gt;&lt;br&gt;&lt;br&gt;&lt;br&gt;&lt;br&gt;&lt;br&gt;&lt;br&gt;&lt;br&gt;&lt;br&gt;" style="html=1;outlineConnect=0;whiteSpace=wrap;fillColor=#99ffff;shape=mxgraph.archimate3.application;appType=comp;archiType=square;" vertex="1" parent="1">
          <mxGeometry x="5282.62" y="1421.25" width="217" height="234" as="geometry" />
        </mxCell>
        <mxCell id="2fcH4yExuOtMv_uIpckA-531" value="" style="edgeStyle=orthogonalEdgeStyle;rounded=0;orthogonalLoop=1;jettySize=auto;html=1;dashed=1;endArrow=open;endFill=0;" edge="1" parent="1" source="2fcH4yExuOtMv_uIpckA-532" target="2fcH4yExuOtMv_uIpckA-535">
          <mxGeometry relative="1" as="geometry" />
        </mxCell>
        <mxCell id="2fcH4yExuOtMv_uIpckA-532" value="Блокировка аккаунта пользователя" style="html=1;outlineConnect=0;whiteSpace=wrap;fillColor=#99ffff;shape=mxgraph.archimate3.application;appType=func;archiType=rounded;" vertex="1" parent="1">
          <mxGeometry x="5298.62" y="1448.25" width="81" height="84" as="geometry" />
        </mxCell>
        <mxCell id="2fcH4yExuOtMv_uIpckA-533" value="" style="edgeStyle=orthogonalEdgeStyle;rounded=0;orthogonalLoop=1;jettySize=auto;html=1;dashed=1;endArrow=open;endFill=0;" edge="1" parent="1" source="2fcH4yExuOtMv_uIpckA-534" target="2fcH4yExuOtMv_uIpckA-536">
          <mxGeometry relative="1" as="geometry" />
        </mxCell>
        <mxCell id="2fcH4yExuOtMv_uIpckA-534" value="Ввод причины блокировки" style="html=1;outlineConnect=0;whiteSpace=wrap;fillColor=#99ffff;shape=mxgraph.archimate3.application;appType=func;archiType=rounded;" vertex="1" parent="1">
          <mxGeometry x="5413.62" y="1452.75" width="68" height="75" as="geometry" />
        </mxCell>
        <mxCell id="2fcH4yExuOtMv_uIpckA-535" value="&lt;br&gt;&lt;br&gt;Данные о блокировке пользователя" style="html=1;outlineConnect=0;whiteSpace=wrap;fillColor=#99ffff;shape=mxgraph.archimate3.businessObject;overflow=fill" vertex="1" parent="1">
          <mxGeometry x="5298.62" y="1551.75" width="81" height="75" as="geometry" />
        </mxCell>
        <mxCell id="2fcH4yExuOtMv_uIpckA-536" value="&lt;br&gt;&lt;br&gt;Данные о причине блокировки" style="html=1;outlineConnect=0;whiteSpace=wrap;fillColor=#99ffff;shape=mxgraph.archimate3.businessObject;overflow=fill" vertex="1" parent="1">
          <mxGeometry x="5411.62" y="1554.25" width="72" height="79.5" as="geometry" />
        </mxCell>
        <mxCell id="2fcH4yExuOtMv_uIpckA-537" style="edgeStyle=orthogonalEdgeStyle;rounded=0;orthogonalLoop=1;jettySize=auto;html=1;exitX=0.25;exitY=0;exitDx=0;exitDy=0;exitPerimeter=0;entryX=0.5;entryY=1;entryDx=0;entryDy=0;entryPerimeter=0;dashed=1;endArrow=block;endFill=0;" edge="1" parent="1" source="2fcH4yExuOtMv_uIpckA-539" target="2fcH4yExuOtMv_uIpckA-543">
          <mxGeometry relative="1" as="geometry">
            <Array as="points">
              <mxPoint x="4740.5" y="1410" />
              <mxPoint x="4739.5" y="1363" />
            </Array>
          </mxGeometry>
        </mxCell>
        <mxCell id="2fcH4yExuOtMv_uIpckA-538" style="edgeStyle=orthogonalEdgeStyle;rounded=0;orthogonalLoop=1;jettySize=auto;html=1;exitX=0.75;exitY=0;exitDx=0;exitDy=0;exitPerimeter=0;entryX=0.5;entryY=1;entryDx=0;entryDy=0;entryPerimeter=0;dashed=1;endArrow=block;endFill=0;" edge="1" parent="1" source="2fcH4yExuOtMv_uIpckA-539" target="2fcH4yExuOtMv_uIpckA-545">
          <mxGeometry relative="1" as="geometry">
            <Array as="points">
              <mxPoint x="4845.5" y="1420" />
              <mxPoint x="4879.5" y="1420" />
            </Array>
          </mxGeometry>
        </mxCell>
        <mxCell id="2fcH4yExuOtMv_uIpckA-539" value="Просмотр профиля &lt;br&gt;пользователя&lt;br&gt;&lt;br&gt;&lt;br&gt;&lt;br&gt;&lt;br&gt;&lt;br&gt;&lt;br&gt;&lt;br&gt;&lt;br&gt;&lt;br&gt;&lt;br&gt;&lt;br&gt;&lt;br&gt;" style="html=1;outlineConnect=0;whiteSpace=wrap;fillColor=#99ffff;shape=mxgraph.archimate3.application;appType=comp;archiType=square;" vertex="1" parent="1">
          <mxGeometry x="4687.5" y="1435.5" width="210" height="224.5" as="geometry" />
        </mxCell>
        <mxCell id="2fcH4yExuOtMv_uIpckA-540" style="edgeStyle=orthogonalEdgeStyle;rounded=0;orthogonalLoop=1;jettySize=auto;html=1;exitX=0.5;exitY=0;exitDx=0;exitDy=0;exitPerimeter=0;entryX=0.5;entryY=1;entryDx=0;entryDy=0;entryPerimeter=0;dashed=1;endArrow=block;endFill=0;" edge="1" parent="1" source="2fcH4yExuOtMv_uIpckA-541" target="2fcH4yExuOtMv_uIpckA-547">
          <mxGeometry relative="1" as="geometry" />
        </mxCell>
        <mxCell id="2fcH4yExuOtMv_uIpckA-541" value="Решение об аккаунте пользователя&lt;br&gt;&lt;br&gt;&lt;br&gt;&lt;br&gt;&lt;br&gt;&lt;br&gt;&lt;br&gt;&lt;br&gt;&lt;br&gt;&lt;br&gt;&lt;br&gt;&lt;br&gt;&lt;br&gt;&lt;br&gt;&lt;br&gt;&lt;br&gt;" style="html=1;outlineConnect=0;whiteSpace=wrap;fillColor=#99ffff;shape=mxgraph.archimate3.application;appType=comp;archiType=square;" vertex="1" parent="1">
          <mxGeometry x="5106.5" y="1404" width="111" height="273" as="geometry" />
        </mxCell>
        <mxCell id="2fcH4yExuOtMv_uIpckA-542" style="edgeStyle=orthogonalEdgeStyle;rounded=1;orthogonalLoop=1;jettySize=auto;html=1;exitX=0.5;exitY=0;exitDx=0;exitDy=0;exitPerimeter=0;entryX=0.25;entryY=1;entryDx=0;entryDy=0;entryPerimeter=0;endArrow=open;endFill=0;" edge="1" parent="1" source="2fcH4yExuOtMv_uIpckA-543" target="2fcH4yExuOtMv_uIpckA-469">
          <mxGeometry relative="1" as="geometry" />
        </mxCell>
        <mxCell id="2fcH4yExuOtMv_uIpckA-543" value="Сервис просмотра данных пользоваеля" style="html=1;outlineConnect=0;whiteSpace=wrap;fillColor=#99ffff;shape=mxgraph.archimate3.application;appType=serv;archiType=rounded" vertex="1" parent="1">
          <mxGeometry x="4707.5" y="1295" width="81" height="68" as="geometry" />
        </mxCell>
        <mxCell id="2fcH4yExuOtMv_uIpckA-544" style="edgeStyle=orthogonalEdgeStyle;rounded=1;orthogonalLoop=1;jettySize=auto;html=1;exitX=0.5;exitY=0;exitDx=0;exitDy=0;exitPerimeter=0;entryX=0.5;entryY=1;entryDx=0;entryDy=0;entryPerimeter=0;endArrow=open;endFill=0;" edge="1" parent="1" source="2fcH4yExuOtMv_uIpckA-545" target="2fcH4yExuOtMv_uIpckA-469">
          <mxGeometry relative="1" as="geometry" />
        </mxCell>
        <mxCell id="2fcH4yExuOtMv_uIpckA-545" value="Сервис просмотра аккаунта пользователя" style="html=1;outlineConnect=0;whiteSpace=wrap;fillColor=#99ffff;shape=mxgraph.archimate3.application;appType=serv;archiType=rounded" vertex="1" parent="1">
          <mxGeometry x="4828" y="1294" width="103" height="69" as="geometry" />
        </mxCell>
        <mxCell id="2fcH4yExuOtMv_uIpckA-546" style="edgeStyle=orthogonalEdgeStyle;rounded=1;orthogonalLoop=1;jettySize=auto;html=1;exitX=0.5;exitY=0;exitDx=0;exitDy=0;exitPerimeter=0;entryX=0.924;entryY=1;entryDx=0;entryDy=0;entryPerimeter=0;endArrow=open;endFill=0;" edge="1" parent="1" source="2fcH4yExuOtMv_uIpckA-547" target="2fcH4yExuOtMv_uIpckA-469">
          <mxGeometry relative="1" as="geometry">
            <Array as="points">
              <mxPoint x="5156.5" y="1329" />
              <mxPoint x="5177.5" y="1329" />
              <mxPoint x="5177.5" y="1290" />
              <mxPoint x="5027.5" y="1290" />
              <mxPoint x="5027.5" y="1250" />
              <mxPoint x="4965.5" y="1250" />
            </Array>
          </mxGeometry>
        </mxCell>
        <mxCell id="2fcH4yExuOtMv_uIpckA-547" value="Сервис вынесения решения об аккаунте пользователя" style="html=1;outlineConnect=0;whiteSpace=wrap;fillColor=#99ffff;shape=mxgraph.archimate3.application;appType=serv;archiType=rounded" vertex="1" parent="1">
          <mxGeometry x="5095.5" y="1305" width="122" height="75" as="geometry" />
        </mxCell>
        <mxCell id="2fcH4yExuOtMv_uIpckA-548" style="edgeStyle=orthogonalEdgeStyle;rounded=0;orthogonalLoop=1;jettySize=auto;html=1;exitX=0.5;exitY=1;exitDx=0;exitDy=0;exitPerimeter=0;entryX=0.5;entryY=0;entryDx=0;entryDy=0;entryPerimeter=0;dashed=1;endArrow=open;endFill=0;" edge="1" parent="1" source="2fcH4yExuOtMv_uIpckA-549" target="2fcH4yExuOtMv_uIpckA-550">
          <mxGeometry relative="1" as="geometry" />
        </mxCell>
        <mxCell id="2fcH4yExuOtMv_uIpckA-549" value="Вынесение решения об аккаунте пользователя" style="html=1;outlineConnect=0;whiteSpace=wrap;fillColor=#99ffff;shape=mxgraph.archimate3.application;appType=func;archiType=rounded;" vertex="1" parent="1">
          <mxGeometry x="5121.5" y="1461" width="86" height="96" as="geometry" />
        </mxCell>
        <mxCell id="2fcH4yExuOtMv_uIpckA-550" value="&lt;table cellpadding=&quot;0&quot; cellspacing=&quot;0&quot; style=&quot;font-size:1em;width:100%;height:100%;&quot;&gt;&lt;tbody&gt;&lt;tr style=&quot;height:20px;&quot;&gt;&lt;td align=&quot;center&quot;&gt;&lt;/td&gt;&lt;/tr&gt;&lt;tr&gt;&lt;td align=&quot;left&quot; valign=&quot;top&quot; style=&quot;padding:4px;&quot;&gt;Данные о решении&lt;/td&gt;&lt;/tr&gt;&lt;/tbody&gt;&lt;/table&gt;" style="html=1;outlineConnect=0;whiteSpace=wrap;fillColor=#99ffff;shape=mxgraph.archimate3.businessObject;overflow=fill" vertex="1" parent="1">
          <mxGeometry x="5131.5" y="1597" width="66" height="73" as="geometry" />
        </mxCell>
        <mxCell id="2fcH4yExuOtMv_uIpckA-551" style="edgeStyle=orthogonalEdgeStyle;rounded=1;orthogonalLoop=1;jettySize=auto;html=1;exitX=0.5;exitY=1;exitDx=0;exitDy=0;exitPerimeter=0;entryX=0.25;entryY=0;entryDx=0;entryDy=0;entryPerimeter=0;endArrow=open;endFill=0;dashed=1;" edge="1" parent="1" source="2fcH4yExuOtMv_uIpckA-552" target="2fcH4yExuOtMv_uIpckA-555">
          <mxGeometry relative="1" as="geometry" />
        </mxCell>
        <mxCell id="2fcH4yExuOtMv_uIpckA-552" value="Просмотр данных пользователя" style="html=1;outlineConnect=0;whiteSpace=wrap;fillColor=#99ffff;shape=mxgraph.archimate3.application;appType=func;archiType=rounded;" vertex="1" parent="1">
          <mxGeometry x="4696" y="1478" width="84" height="82" as="geometry" />
        </mxCell>
        <mxCell id="2fcH4yExuOtMv_uIpckA-553" style="edgeStyle=orthogonalEdgeStyle;rounded=1;orthogonalLoop=1;jettySize=auto;html=1;exitX=0.5;exitY=1;exitDx=0;exitDy=0;exitPerimeter=0;entryX=0.75;entryY=0;entryDx=0;entryDy=0;entryPerimeter=0;dashed=1;endArrow=open;endFill=0;" edge="1" parent="1" source="2fcH4yExuOtMv_uIpckA-554" target="2fcH4yExuOtMv_uIpckA-555">
          <mxGeometry relative="1" as="geometry" />
        </mxCell>
        <mxCell id="2fcH4yExuOtMv_uIpckA-554" value="Просмотр аккаунта пользователя" style="html=1;outlineConnect=0;whiteSpace=wrap;fillColor=#99ffff;shape=mxgraph.archimate3.application;appType=func;archiType=rounded;" vertex="1" parent="1">
          <mxGeometry x="4815.5" y="1478" width="76" height="82" as="geometry" />
        </mxCell>
        <mxCell id="2fcH4yExuOtMv_uIpckA-555" value="&lt;br&gt;&lt;br&gt;Данные об аккаунте пользователя" style="html=1;outlineConnect=0;whiteSpace=wrap;fillColor=#99ffff;shape=mxgraph.archimate3.businessObject;overflow=fill" vertex="1" parent="1">
          <mxGeometry x="4753.5" y="1572" width="90.5" height="80" as="geometry" />
        </mxCell>
        <mxCell id="2fcH4yExuOtMv_uIpckA-556" style="edgeStyle=orthogonalEdgeStyle;rounded=0;orthogonalLoop=1;jettySize=auto;html=1;exitX=0.5;exitY=0;exitDx=0;exitDy=0;exitPerimeter=0;entryX=0.5;entryY=1;entryDx=0;entryDy=0;entryPerimeter=0;dashed=1;endArrow=block;endFill=0;" edge="1" parent="1" source="2fcH4yExuOtMv_uIpckA-557" target="2fcH4yExuOtMv_uIpckA-559">
          <mxGeometry relative="1" as="geometry" />
        </mxCell>
        <mxCell id="2fcH4yExuOtMv_uIpckA-557" value="Модуль проверки автоматической проверки соответствия аккаунта пользователя правилам платформы&lt;br&gt;&lt;br&gt;&lt;br&gt;&lt;br&gt;&lt;br&gt;&lt;br&gt;&lt;br&gt;&lt;br&gt;&lt;br&gt;&lt;br&gt;&lt;br&gt;&lt;br&gt;&lt;br&gt;&lt;br&gt;&lt;br&gt;&amp;nbsp;" style="html=1;outlineConnect=0;whiteSpace=wrap;fillColor=#99ffff;shape=mxgraph.archimate3.application;appType=comp;archiType=square;" vertex="1" parent="1">
          <mxGeometry x="4830.88" y="1694" width="361.12" height="253" as="geometry" />
        </mxCell>
        <mxCell id="2fcH4yExuOtMv_uIpckA-558" style="edgeStyle=orthogonalEdgeStyle;rounded=1;orthogonalLoop=1;jettySize=auto;html=1;exitX=0.5;exitY=0;exitDx=0;exitDy=0;exitPerimeter=0;entryX=0.75;entryY=1;entryDx=0;entryDy=0;entryPerimeter=0;endArrow=open;endFill=0;" edge="1" parent="1" source="2fcH4yExuOtMv_uIpckA-559" target="2fcH4yExuOtMv_uIpckA-469">
          <mxGeometry relative="1" as="geometry">
            <Array as="points">
              <mxPoint x="5010.5" y="1380" />
              <mxPoint x="5003.5" y="1380" />
              <mxPoint x="5003.5" y="1270" />
              <mxPoint x="4917.5" y="1270" />
              <mxPoint x="4917.5" y="1220" />
              <mxPoint x="4916.5" y="1220" />
            </Array>
          </mxGeometry>
        </mxCell>
        <mxCell id="2fcH4yExuOtMv_uIpckA-559" value="Сервис предоставления аккаунта пользователя на проверку&amp;nbsp;" style="html=1;outlineConnect=0;whiteSpace=wrap;fillColor=#99ffff;shape=mxgraph.archimate3.application;appType=serv;archiType=rounded" vertex="1" parent="1">
          <mxGeometry x="4947" y="1296" width="126.5" height="103" as="geometry" />
        </mxCell>
        <mxCell id="2fcH4yExuOtMv_uIpckA-560" value="&lt;table cellpadding=&quot;0&quot; cellspacing=&quot;0&quot; style=&quot;font-size:1em;width:100%;height:100%;&quot;&gt;&lt;tbody&gt;&lt;tr style=&quot;height:20px;&quot;&gt;&lt;td align=&quot;center&quot;&gt;&lt;/td&gt;&lt;/tr&gt;&lt;tr&gt;&lt;td align=&quot;left&quot; valign=&quot;top&quot; style=&quot;padding:4px;&quot;&gt;Шаблоны запретных слов&lt;/td&gt;&lt;/tr&gt;&lt;/tbody&gt;&lt;/table&gt;" style="html=1;outlineConnect=0;whiteSpace=wrap;fillColor=#99ffff;shape=mxgraph.archimate3.businessObject;overflow=fill" vertex="1" parent="1">
          <mxGeometry x="4844.5" y="1852" width="98" height="61" as="geometry" />
        </mxCell>
        <mxCell id="2fcH4yExuOtMv_uIpckA-561" value="&lt;table cellpadding=&quot;0&quot; cellspacing=&quot;0&quot; style=&quot;font-size:1em;width:100%;height:100%;&quot;&gt;&lt;tbody&gt;&lt;tr style=&quot;height:20px;&quot;&gt;&lt;td align=&quot;center&quot;&gt;&lt;/td&gt;&lt;/tr&gt;&lt;tr&gt;&lt;td align=&quot;left&quot; valign=&quot;top&quot; style=&quot;padding:4px;&quot;&gt;Шаблоны запретной информации&lt;/td&gt;&lt;/tr&gt;&lt;/tbody&gt;&lt;/table&gt;" style="html=1;outlineConnect=0;whiteSpace=wrap;fillColor=#99ffff;shape=mxgraph.archimate3.businessObject;overflow=fill" vertex="1" parent="1">
          <mxGeometry x="5001" y="1872" width="130" height="60" as="geometry" />
        </mxCell>
        <mxCell id="2fcH4yExuOtMv_uIpckA-562" style="edgeStyle=orthogonalEdgeStyle;rounded=1;orthogonalLoop=1;jettySize=auto;html=1;exitX=0.5;exitY=1;exitDx=0;exitDy=0;exitPerimeter=0;entryX=0.5;entryY=0;entryDx=0;entryDy=0;entryPerimeter=0;dashed=1;endArrow=open;endFill=0;" edge="1" parent="1" source="2fcH4yExuOtMv_uIpckA-563" target="2fcH4yExuOtMv_uIpckA-560">
          <mxGeometry relative="1" as="geometry">
            <Array as="points">
              <mxPoint x="4888" y="1832" />
              <mxPoint x="4894" y="1832" />
            </Array>
          </mxGeometry>
        </mxCell>
        <mxCell id="2fcH4yExuOtMv_uIpckA-563" value="Проверка ФИО пользователя" style="html=1;outlineConnect=0;whiteSpace=wrap;fillColor=#99ffff;shape=mxgraph.archimate3.application;appType=func;archiType=rounded;" vertex="1" parent="1">
          <mxGeometry x="4844.5" y="1732.5" width="87.5" height="69.5" as="geometry" />
        </mxCell>
        <mxCell id="2fcH4yExuOtMv_uIpckA-565" style="edgeStyle=orthogonalEdgeStyle;rounded=1;orthogonalLoop=1;jettySize=auto;html=1;exitX=0.5;exitY=1;exitDx=0;exitDy=0;exitPerimeter=0;entryX=0.5;entryY=0;entryDx=0;entryDy=0;entryPerimeter=0;dashed=1;endArrow=open;endFill=0;" edge="1" parent="1" source="2fcH4yExuOtMv_uIpckA-566" target="2fcH4yExuOtMv_uIpckA-561">
          <mxGeometry relative="1" as="geometry">
            <Array as="points">
              <mxPoint x="5005" y="1832" />
              <mxPoint x="5087" y="1832" />
            </Array>
          </mxGeometry>
        </mxCell>
        <mxCell id="2fcH4yExuOtMv_uIpckA-566" value="Проверка данных пользователя" style="html=1;outlineConnect=0;whiteSpace=wrap;fillColor=#99ffff;shape=mxgraph.archimate3.application;appType=func;archiType=rounded;" vertex="1" parent="1">
          <mxGeometry x="4958.5" y="1732.5" width="83.5" height="79.5" as="geometry" />
        </mxCell>
        <mxCell id="2fcH4yExuOtMv_uIpckA-567" style="edgeStyle=orthogonalEdgeStyle;rounded=0;orthogonalLoop=1;jettySize=auto;html=1;exitX=0.5;exitY=1;exitDx=0;exitDy=0;exitPerimeter=0;entryX=0.75;entryY=0;entryDx=0;entryDy=0;entryPerimeter=0;dashed=1;endArrow=open;endFill=0;" edge="1" parent="1" source="2fcH4yExuOtMv_uIpckA-569" target="2fcH4yExuOtMv_uIpckA-561">
          <mxGeometry relative="1" as="geometry">
            <Array as="points">
              <mxPoint x="5110" y="1832" />
              <mxPoint x="5099" y="1832" />
            </Array>
          </mxGeometry>
        </mxCell>
        <mxCell id="2fcH4yExuOtMv_uIpckA-569" value="Проверка описания профиля пользователя" style="html=1;outlineConnect=0;whiteSpace=wrap;fillColor=#99ffff;shape=mxgraph.archimate3.application;appType=func;archiType=rounded;" vertex="1" parent="1">
          <mxGeometry x="5061.5" y="1734.75" width="97" height="75" as="geometry" />
        </mxCell>
        <mxCell id="2fcH4yExuOtMv_uIpckA-570" value="Данные о решении" style="html=1;outlineConnect=0;whiteSpace=wrap;fillColor=#AFFFAF;shape=mxgraph.archimate3.application;appType=artifact;archiType=square;" vertex="1" parent="1">
          <mxGeometry x="5312.5" y="2522.5" width="101" height="56" as="geometry" />
        </mxCell>
        <mxCell id="2fcH4yExuOtMv_uIpckA-571" value="Шаблоны для проверки" style="html=1;outlineConnect=0;whiteSpace=wrap;fillColor=#AFFFAF;shape=mxgraph.archimate3.application;appType=artifact;archiType=square;" vertex="1" parent="1">
          <mxGeometry x="5430.75" y="2457.5" width="101" height="56" as="geometry" />
        </mxCell>
        <mxCell id="2fcH4yExuOtMv_uIpckA-572" value="Данные об изменениях в аккаунте&amp;nbsp;" style="html=1;outlineConnect=0;whiteSpace=wrap;fillColor=#AFFFAF;shape=mxgraph.archimate3.application;appType=artifact;archiType=square;" vertex="1" parent="1">
          <mxGeometry x="5430.75" y="2525" width="101" height="56" as="geometry" />
        </mxCell>
        <mxCell id="2fcH4yExuOtMv_uIpckA-573" value="Клиент" style="html=1;outlineConnect=0;whiteSpace=wrap;fillColor=#ffff99;verticalLabelPosition=bottom;verticalAlign=top;align=center;shape=mxgraph.archimate3.actor;" vertex="1" parent="1">
          <mxGeometry x="5218" y="631" width="50" height="95" as="geometry" />
        </mxCell>
        <mxCell id="2fcH4yExuOtMv_uIpckA-574" value="" style="endArrow=none;html=1;rounded=0;entryX=0;entryY=0.5;entryDx=0;entryDy=0;entryPerimeter=0;exitX=1;exitY=0.45;exitDx=0;exitDy=0;exitPerimeter=0;" edge="1" parent="1" source="2fcH4yExuOtMv_uIpckA-573" target="2fcH4yExuOtMv_uIpckA-467">
          <mxGeometry width="50" height="50" relative="1" as="geometry">
            <mxPoint x="5037.5" y="730" as="sourcePoint" />
            <mxPoint x="5087.5" y="680" as="targetPoint" />
          </mxGeometry>
        </mxCell>
        <mxCell id="2fcH4yExuOtMv_uIpckA-579" style="edgeStyle=orthogonalEdgeStyle;rounded=1;orthogonalLoop=1;jettySize=auto;html=1;exitX=0.5;exitY=1;exitDx=0;exitDy=0;exitPerimeter=0;entryX=0.25;entryY=0;entryDx=0;entryDy=0;entryPerimeter=0;dashed=1;endArrow=open;endFill=0;" edge="1" parent="1" source="2fcH4yExuOtMv_uIpckA-563" target="2fcH4yExuOtMv_uIpckA-561">
          <mxGeometry relative="1" as="geometry">
            <mxPoint x="4904" y="1818" as="sourcePoint" />
            <mxPoint x="4904" y="1862" as="targetPoint" />
            <Array as="points">
              <mxPoint x="4892" y="1802" />
              <mxPoint x="4892" y="1832" />
              <mxPoint x="5034" y="1832" />
            </Array>
          </mxGeometry>
        </mxCell>
        <mxCell id="2fcH4yExuOtMv_uIpckA-580" style="edgeStyle=orthogonalEdgeStyle;rounded=1;orthogonalLoop=1;jettySize=auto;html=1;entryX=0.75;entryY=0;entryDx=0;entryDy=0;entryPerimeter=0;dashed=1;endArrow=open;endFill=0;exitX=0.25;exitY=1;exitDx=0;exitDy=0;exitPerimeter=0;" edge="1" parent="1" source="2fcH4yExuOtMv_uIpckA-566" target="2fcH4yExuOtMv_uIpckA-560">
          <mxGeometry relative="1" as="geometry">
            <mxPoint x="4898" y="1812" as="sourcePoint" />
            <mxPoint x="5044" y="1882" as="targetPoint" />
            <Array as="points" />
          </mxGeometry>
        </mxCell>
        <mxCell id="2fcH4yExuOtMv_uIpckA-581" style="edgeStyle=orthogonalEdgeStyle;rounded=1;orthogonalLoop=1;jettySize=auto;html=1;entryX=1;entryY=0.5;entryDx=0;entryDy=0;entryPerimeter=0;dashed=1;endArrow=open;endFill=0;exitX=0.25;exitY=1;exitDx=0;exitDy=0;exitPerimeter=0;" edge="1" parent="1" source="2fcH4yExuOtMv_uIpckA-569" target="2fcH4yExuOtMv_uIpckA-560">
          <mxGeometry relative="1" as="geometry">
            <mxPoint x="5167.99" y="1840" as="sourcePoint" />
            <mxPoint x="5313.99" y="1910" as="targetPoint" />
            <Array as="points">
              <mxPoint x="5086" y="1852" />
              <mxPoint x="4952" y="1852" />
              <mxPoint x="4952" y="1883" />
            </Array>
          </mxGeometry>
        </mxCell>
        <mxCell id="2fcH4yExuOtMv_uIpckA-585" value="Аналитика&amp;nbsp;&lt;br&gt;&lt;br&gt;&lt;br&gt;&lt;br&gt;&lt;br&gt;&lt;br&gt;&lt;br&gt;&lt;br&gt;&lt;br&gt;&lt;br&gt;&lt;br&gt;&lt;br&gt;&lt;br&gt;&lt;br&gt;&lt;br&gt;&lt;br&gt;&lt;br&gt;&lt;br&gt;&lt;br&gt;&lt;br&gt;" style="html=1;outlineConnect=0;whiteSpace=wrap;fillColor=#ffff99;shape=mxgraph.archimate3.application;appType=proc;archiType=rounded;" vertex="1" parent="1">
          <mxGeometry x="5717.5" y="857" width="450" height="313" as="geometry" />
        </mxCell>
        <mxCell id="2fcH4yExuOtMv_uIpckA-586" value="Составление топа фильмов&lt;br&gt;&lt;br&gt;&lt;br&gt;&lt;br&gt;&lt;br&gt;&lt;br&gt;&lt;br&gt;&lt;br&gt;&lt;br&gt;&lt;br&gt;&lt;br&gt;&lt;br&gt;&lt;br&gt;" style="html=1;outlineConnect=0;whiteSpace=wrap;fillColor=#ffff99;shape=mxgraph.archimate3.application;appType=func;archiType=rounded;" vertex="1" parent="1">
          <mxGeometry x="5997.5" y="908.75" width="145" height="215.5" as="geometry" />
        </mxCell>
        <mxCell id="2fcH4yExuOtMv_uIpckA-588" value="Создание отчета по активности пользователей&lt;br&gt;&lt;br&gt;&lt;br&gt;&lt;br&gt;&lt;br&gt;&lt;br&gt;&lt;br&gt;&lt;br&gt;&lt;br&gt;&lt;br&gt;&lt;br&gt;&lt;br&gt;&lt;br&gt;&lt;br&gt;" style="html=1;outlineConnect=0;whiteSpace=wrap;fillColor=#ffff99;shape=mxgraph.archimate3.application;appType=event;archiType=rounded;" vertex="1" parent="1">
          <mxGeometry x="5747.5" y="908.75" width="220" height="218.25" as="geometry" />
        </mxCell>
        <mxCell id="2fcH4yExuOtMv_uIpckA-593" value="Рассмотрение &lt;br&gt;заявок на разблокировку&lt;br&gt;&lt;br&gt;&lt;br&gt;&lt;br&gt;&lt;br&gt;&lt;br&gt;&lt;br&gt;&lt;br&gt;&lt;br&gt;&lt;br&gt;&lt;br&gt;&lt;br&gt;&lt;br&gt;&lt;br&gt;&lt;br&gt;" style="html=1;outlineConnect=0;whiteSpace=wrap;fillColor=#ffff99;shape=mxgraph.archimate3.application;appType=func;archiType=rounded;" vertex="1" parent="1">
          <mxGeometry x="5294.5" y="825" width="333" height="245" as="geometry" />
        </mxCell>
        <mxCell id="2fcH4yExuOtMv_uIpckA-594" value="Просмотр действий пользователя" style="html=1;outlineConnect=0;whiteSpace=wrap;fillColor=#ffff99;shape=mxgraph.archimate3.application;appType=proc;archiType=rounded;" vertex="1" parent="1">
          <mxGeometry x="5408" y="863" width="77" height="74" as="geometry" />
        </mxCell>
        <mxCell id="2fcH4yExuOtMv_uIpckA-595" value="Просмотр причины блокировки" style="html=1;outlineConnect=0;whiteSpace=wrap;fillColor=#ffff99;shape=mxgraph.archimate3.application;appType=proc;archiType=rounded;" vertex="1" parent="1">
          <mxGeometry x="5298" y="862.5" width="79.5" height="75" as="geometry" />
        </mxCell>
        <mxCell id="2fcH4yExuOtMv_uIpckA-596" style="edgeStyle=orthogonalEdgeStyle;rounded=0;orthogonalLoop=1;jettySize=auto;html=1;exitX=1;exitY=0.5;exitDx=0;exitDy=0;exitPerimeter=0;entryX=0;entryY=0.5;entryDx=0;entryDy=0;entryPerimeter=0;endArrow=block;endFill=1;" edge="1" parent="1" source="2fcH4yExuOtMv_uIpckA-595" target="2fcH4yExuOtMv_uIpckA-594">
          <mxGeometry relative="1" as="geometry">
            <mxPoint x="5141.5" y="904" as="sourcePoint" />
            <mxPoint x="5182.5" y="904" as="targetPoint" />
          </mxGeometry>
        </mxCell>
        <mxCell id="2fcH4yExuOtMv_uIpckA-597" value="&lt;table cellpadding=&quot;0&quot; cellspacing=&quot;0&quot; style=&quot;font-size:1em;width:100%;height:100%;&quot;&gt;&lt;tbody&gt;&lt;tr style=&quot;height:20px;&quot;&gt;&lt;td align=&quot;center&quot;&gt;&lt;/td&gt;&lt;/tr&gt;&lt;tr&gt;&lt;td align=&quot;left&quot; valign=&quot;top&quot; style=&quot;padding:4px;&quot;&gt;Данные о причине блокировки&lt;/td&gt;&lt;/tr&gt;&lt;/tbody&gt;&lt;/table&gt;" style="html=1;outlineConnect=0;whiteSpace=wrap;fillColor=#ffff99;shape=mxgraph.archimate3.businessObject;overflow=fill;" vertex="1" parent="1">
          <mxGeometry x="5300.75" y="974" width="74" height="81" as="geometry" />
        </mxCell>
        <mxCell id="2fcH4yExuOtMv_uIpckA-598" style="edgeStyle=orthogonalEdgeStyle;rounded=0;orthogonalLoop=1;jettySize=auto;html=1;entryX=0.5;entryY=0;entryDx=0;entryDy=0;entryPerimeter=0;dashed=1;endArrow=open;endFill=0;exitX=0.5;exitY=1;exitDx=0;exitDy=0;exitPerimeter=0;" edge="1" parent="1" source="2fcH4yExuOtMv_uIpckA-595" target="2fcH4yExuOtMv_uIpckA-597">
          <mxGeometry relative="1" as="geometry">
            <mxPoint x="5219.5" y="937" as="sourcePoint" />
            <mxPoint x="5218.5" y="979" as="targetPoint" />
          </mxGeometry>
        </mxCell>
        <mxCell id="2fcH4yExuOtMv_uIpckA-599" value="&lt;br&gt;Данные об аккаунте пользователя" style="html=1;outlineConnect=0;whiteSpace=wrap;fillColor=#ffff99;shape=mxgraph.archimate3.businessObject;overflow=fill;" vertex="1" parent="1">
          <mxGeometry x="5408" y="987" width="94" height="60" as="geometry" />
        </mxCell>
        <mxCell id="2fcH4yExuOtMv_uIpckA-600" value="Разблокировка аккаунта пользователя" style="html=1;outlineConnect=0;whiteSpace=wrap;fillColor=#ffff99;shape=mxgraph.archimate3.application;appType=proc;archiType=rounded;" vertex="1" parent="1">
          <mxGeometry x="5522" y="867.5" width="105.5" height="66" as="geometry" />
        </mxCell>
        <mxCell id="2fcH4yExuOtMv_uIpckA-601" style="edgeStyle=orthogonalEdgeStyle;rounded=0;orthogonalLoop=1;jettySize=auto;html=1;exitX=1;exitY=0.5;exitDx=0;exitDy=0;exitPerimeter=0;entryX=0;entryY=0.5;entryDx=0;entryDy=0;entryPerimeter=0;endArrow=block;endFill=1;" edge="1" parent="1" source="2fcH4yExuOtMv_uIpckA-594" target="2fcH4yExuOtMv_uIpckA-600">
          <mxGeometry relative="1" as="geometry">
            <mxPoint x="5387.5" y="910" as="sourcePoint" />
            <mxPoint x="5426.5" y="911" as="targetPoint" />
          </mxGeometry>
        </mxCell>
        <mxCell id="2fcH4yExuOtMv_uIpckA-602" value="&lt;table cellpadding=&quot;0&quot; cellspacing=&quot;0&quot; style=&quot;font-size:1em;width:100%;height:100%;&quot;&gt;&lt;tbody&gt;&lt;tr style=&quot;height:20px;&quot;&gt;&lt;td align=&quot;center&quot;&gt;&lt;/td&gt;&lt;/tr&gt;&lt;tr&gt;&lt;td align=&quot;left&quot; valign=&quot;top&quot; style=&quot;padding:4px;&quot;&gt;Данные о блокировке пользователя&lt;/td&gt;&lt;/tr&gt;&lt;/tbody&gt;&lt;/table&gt;" style="html=1;outlineConnect=0;whiteSpace=wrap;fillColor=#ffff99;shape=mxgraph.archimate3.businessObject;overflow=fill;" vertex="1" parent="1">
          <mxGeometry x="5534.75" y="969" width="80" height="81" as="geometry" />
        </mxCell>
        <mxCell id="2fcH4yExuOtMv_uIpckA-603" style="edgeStyle=orthogonalEdgeStyle;rounded=0;orthogonalLoop=1;jettySize=auto;html=1;entryX=0.5;entryY=0;entryDx=0;entryDy=0;entryPerimeter=0;dashed=1;endArrow=open;endFill=0;exitX=0.5;exitY=1;exitDx=0;exitDy=0;exitPerimeter=0;" edge="1" parent="1" source="2fcH4yExuOtMv_uIpckA-594" target="2fcH4yExuOtMv_uIpckA-599">
          <mxGeometry relative="1" as="geometry">
            <mxPoint x="5457.5" y="940" as="sourcePoint" />
            <mxPoint x="5086.5" y="979" as="targetPoint" />
            <Array as="points">
              <mxPoint x="5447.5" y="938" />
              <mxPoint x="5447.5" y="970" />
              <mxPoint x="5455.5" y="970" />
            </Array>
          </mxGeometry>
        </mxCell>
        <mxCell id="2fcH4yExuOtMv_uIpckA-604" style="edgeStyle=orthogonalEdgeStyle;rounded=0;orthogonalLoop=1;jettySize=auto;html=1;entryX=0.5;entryY=0;entryDx=0;entryDy=0;entryPerimeter=0;dashed=1;endArrow=open;endFill=0;exitX=0.5;exitY=1;exitDx=0;exitDy=0;exitPerimeter=0;" edge="1" parent="1" source="2fcH4yExuOtMv_uIpckA-600" target="2fcH4yExuOtMv_uIpckA-602">
          <mxGeometry relative="1" as="geometry">
            <mxPoint x="5347.5" y="948" as="sourcePoint" />
            <mxPoint x="5347.5" y="984" as="targetPoint" />
          </mxGeometry>
        </mxCell>
        <mxCell id="2fcH4yExuOtMv_uIpckA-605" value="Сервис разблокировки пользователя" style="html=1;outlineConnect=0;whiteSpace=wrap;fillColor=#99ffff;shape=mxgraph.archimate3.application;appType=serv;archiType=rounded" vertex="1" parent="1">
          <mxGeometry x="5462.5" y="1303" width="85.5" height="77" as="geometry" />
        </mxCell>
        <mxCell id="2fcH4yExuOtMv_uIpckA-606" value="Разблокировка пользователя&lt;br&gt;&lt;br&gt;&lt;br&gt;&lt;br&gt;&lt;br&gt;&lt;br&gt;&lt;br&gt;&lt;br&gt;&lt;br&gt;&lt;br&gt;&lt;br&gt;&lt;br&gt;&lt;br&gt;&lt;br&gt;&lt;br&gt;" style="html=1;outlineConnect=0;whiteSpace=wrap;fillColor=#99ffff;shape=mxgraph.archimate3.application;appType=comp;archiType=square;" vertex="1" parent="1">
          <mxGeometry x="5326.75" y="1694" width="362.75" height="234" as="geometry" />
        </mxCell>
        <mxCell id="2fcH4yExuOtMv_uIpckA-607" value="" style="edgeStyle=orthogonalEdgeStyle;rounded=0;orthogonalLoop=1;jettySize=auto;html=1;dashed=1;endArrow=open;endFill=0;" edge="1" parent="1" source="2fcH4yExuOtMv_uIpckA-608" target="2fcH4yExuOtMv_uIpckA-611">
          <mxGeometry relative="1" as="geometry" />
        </mxCell>
        <mxCell id="2fcH4yExuOtMv_uIpckA-608" value="Выдача данных о причине блокировки" style="html=1;outlineConnect=0;whiteSpace=wrap;fillColor=#99ffff;shape=mxgraph.archimate3.application;appType=func;archiType=rounded;" vertex="1" parent="1">
          <mxGeometry x="5342.75" y="1721" width="96.75" height="84" as="geometry" />
        </mxCell>
        <mxCell id="2fcH4yExuOtMv_uIpckA-609" value="" style="edgeStyle=orthogonalEdgeStyle;rounded=0;orthogonalLoop=1;jettySize=auto;html=1;dashed=1;endArrow=open;endFill=0;" edge="1" parent="1" source="2fcH4yExuOtMv_uIpckA-610" target="2fcH4yExuOtMv_uIpckA-612">
          <mxGeometry relative="1" as="geometry" />
        </mxCell>
        <mxCell id="2fcH4yExuOtMv_uIpckA-610" value="Выдача данных о действиях пользователя" style="html=1;outlineConnect=0;whiteSpace=wrap;fillColor=#99ffff;shape=mxgraph.archimate3.application;appType=func;archiType=rounded;" vertex="1" parent="1">
          <mxGeometry x="5457.75" y="1725.5" width="91.75" height="75" as="geometry" />
        </mxCell>
        <mxCell id="2fcH4yExuOtMv_uIpckA-611" value="&lt;br&gt;Данные о причине блокировки пользователя" style="html=1;outlineConnect=0;whiteSpace=wrap;fillColor=#99ffff;shape=mxgraph.archimate3.businessObject;overflow=fill" vertex="1" parent="1">
          <mxGeometry x="5350.63" y="1829" width="81" height="75" as="geometry" />
        </mxCell>
        <mxCell id="2fcH4yExuOtMv_uIpckA-612" value="&lt;br&gt;&lt;br&gt;Данные об аккаунте пользователя" style="html=1;outlineConnect=0;whiteSpace=wrap;fillColor=#99ffff;shape=mxgraph.archimate3.businessObject;overflow=fill" vertex="1" parent="1">
          <mxGeometry x="5457.75" y="1824.5" width="91.87" height="79.5" as="geometry" />
        </mxCell>
        <mxCell id="2fcH4yExuOtMv_uIpckA-613" style="edgeStyle=orthogonalEdgeStyle;rounded=0;orthogonalLoop=1;jettySize=auto;html=1;exitX=0.5;exitY=0;exitDx=0;exitDy=0;exitPerimeter=0;endArrow=open;endFill=0;entryX=0.5;entryY=1;entryDx=0;entryDy=0;entryPerimeter=0;" edge="1" parent="1" source="2fcH4yExuOtMv_uIpckA-605" target="2fcH4yExuOtMv_uIpckA-593">
          <mxGeometry relative="1" as="geometry">
            <mxPoint x="5319.5" y="1315" as="sourcePoint" />
            <mxPoint x="5147.5" y="1111" as="targetPoint" />
          </mxGeometry>
        </mxCell>
        <mxCell id="2fcH4yExuOtMv_uIpckA-614" value="" style="edgeStyle=orthogonalEdgeStyle;rounded=0;orthogonalLoop=1;jettySize=auto;html=1;dashed=1;endArrow=open;endFill=0;" edge="1" parent="1" source="2fcH4yExuOtMv_uIpckA-615" target="2fcH4yExuOtMv_uIpckA-616">
          <mxGeometry relative="1" as="geometry" />
        </mxCell>
        <mxCell id="2fcH4yExuOtMv_uIpckA-615" value="Разблокировка аккаунта пользователя" style="html=1;outlineConnect=0;whiteSpace=wrap;fillColor=#99ffff;shape=mxgraph.archimate3.application;appType=func;archiType=rounded;" vertex="1" parent="1">
          <mxGeometry x="5576.75" y="1725.5" width="91.75" height="75" as="geometry" />
        </mxCell>
        <mxCell id="2fcH4yExuOtMv_uIpckA-616" value="&lt;br&gt;&lt;br&gt;Данные о блокировке пользователя" style="html=1;outlineConnect=0;whiteSpace=wrap;fillColor=#99ffff;shape=mxgraph.archimate3.businessObject;overflow=fill" vertex="1" parent="1">
          <mxGeometry x="5586.63" y="1824.5" width="82.87" height="79.5" as="geometry" />
        </mxCell>
        <mxCell id="2fcH4yExuOtMv_uIpckA-617" style="edgeStyle=orthogonalEdgeStyle;rounded=0;orthogonalLoop=1;jettySize=auto;html=1;entryX=0.5;entryY=1;entryDx=0;entryDy=0;entryPerimeter=0;dashed=1;endArrow=block;endFill=0;exitX=0.5;exitY=0;exitDx=0;exitDy=0;exitPerimeter=0;" edge="1" parent="1" source="2fcH4yExuOtMv_uIpckA-606" target="2fcH4yExuOtMv_uIpckA-605">
          <mxGeometry relative="1" as="geometry">
            <Array as="points">
              <mxPoint x="5527.5" y="1694" />
              <mxPoint x="5527.5" y="1460" />
              <mxPoint x="5505.5" y="1460" />
            </Array>
            <mxPoint x="5607.5" y="1560" as="sourcePoint" />
            <mxPoint x="5319.5" y="1392" as="targetPoint" />
          </mxGeometry>
        </mxCell>
        <mxCell id="2fcH4yExuOtMv_uIpckA-619" value="Формирование отчета" style="html=1;outlineConnect=0;whiteSpace=wrap;fillColor=#ffff99;shape=mxgraph.archimate3.application;appType=proc;archiType=rounded;" vertex="1" parent="1">
          <mxGeometry x="5753.75" y="957" width="90" height="66" as="geometry" />
        </mxCell>
        <mxCell id="2fcH4yExuOtMv_uIpckA-620" value="&lt;br&gt;&lt;br&gt;Данные об аккаунте пользователя" style="html=1;outlineConnect=0;whiteSpace=wrap;fillColor=#ffff99;shape=mxgraph.archimate3.businessObject;overflow=fill;" vertex="1" parent="1">
          <mxGeometry x="5758.75" y="1042.5" width="85" height="74" as="geometry" />
        </mxCell>
        <mxCell id="2fcH4yExuOtMv_uIpckA-621" style="edgeStyle=orthogonalEdgeStyle;rounded=0;orthogonalLoop=1;jettySize=auto;html=1;entryX=0.5;entryY=0;entryDx=0;entryDy=0;entryPerimeter=0;dashed=1;endArrow=open;endFill=0;exitX=0.5;exitY=1;exitDx=0;exitDy=0;exitPerimeter=0;" edge="1" parent="1" source="2fcH4yExuOtMv_uIpckA-619" target="2fcH4yExuOtMv_uIpckA-620">
          <mxGeometry relative="1" as="geometry">
            <mxPoint x="5589.25" y="1038" as="sourcePoint" />
            <mxPoint x="5589.25" y="1074" as="targetPoint" />
          </mxGeometry>
        </mxCell>
        <mxCell id="2fcH4yExuOtMv_uIpckA-622" value="Сохранение отчета" style="html=1;outlineConnect=0;whiteSpace=wrap;fillColor=#ffff99;shape=mxgraph.archimate3.application;appType=proc;archiType=rounded;" vertex="1" parent="1">
          <mxGeometry x="5867.5" y="958.75" width="82.5" height="62.5" as="geometry" />
        </mxCell>
        <mxCell id="2fcH4yExuOtMv_uIpckA-623" value="&lt;br&gt;&lt;br&gt;Данные об отчетах" style="html=1;outlineConnect=0;whiteSpace=wrap;fillColor=#ffff99;shape=mxgraph.archimate3.businessObject;overflow=fill;" vertex="1" parent="1">
          <mxGeometry x="5876.25" y="1042.5" width="65" height="64" as="geometry" />
        </mxCell>
        <mxCell id="2fcH4yExuOtMv_uIpckA-624" style="edgeStyle=orthogonalEdgeStyle;rounded=0;orthogonalLoop=1;jettySize=auto;html=1;entryX=0.5;entryY=0;entryDx=0;entryDy=0;entryPerimeter=0;dashed=1;endArrow=open;endFill=0;exitX=0.5;exitY=1;exitDx=0;exitDy=0;exitPerimeter=0;" edge="1" parent="1" source="2fcH4yExuOtMv_uIpckA-622" target="2fcH4yExuOtMv_uIpckA-623">
          <mxGeometry relative="1" as="geometry">
            <mxPoint x="5819.25" y="1039" as="sourcePoint" />
            <mxPoint x="5819.25" y="1074" as="targetPoint" />
          </mxGeometry>
        </mxCell>
        <mxCell id="2fcH4yExuOtMv_uIpckA-625" style="edgeStyle=orthogonalEdgeStyle;rounded=0;orthogonalLoop=1;jettySize=auto;html=1;exitX=1;exitY=0.5;exitDx=0;exitDy=0;exitPerimeter=0;endArrow=block;endFill=1;entryX=0;entryY=0.5;entryDx=0;entryDy=0;entryPerimeter=0;" edge="1" parent="1" source="2fcH4yExuOtMv_uIpckA-619" target="2fcH4yExuOtMv_uIpckA-622">
          <mxGeometry relative="1" as="geometry">
            <mxPoint x="5295.5" y="1037" as="sourcePoint" />
            <mxPoint x="5617.5" y="917" as="targetPoint" />
            <Array as="points">
              <mxPoint x="5857.5" y="990" />
              <mxPoint x="5857.5" y="990" />
            </Array>
          </mxGeometry>
        </mxCell>
        <mxCell id="2fcH4yExuOtMv_uIpckA-626" value="Обновление топа фильмов" style="html=1;outlineConnect=0;whiteSpace=wrap;fillColor=#ffff99;shape=mxgraph.archimate3.application;appType=proc;archiType=rounded;" vertex="1" parent="1">
          <mxGeometry x="6027.5" y="954.5" width="92.5" height="57.5" as="geometry" />
        </mxCell>
        <mxCell id="2fcH4yExuOtMv_uIpckA-627" value="&lt;br&gt;&lt;br&gt;Данные о фильмах" style="html=1;outlineConnect=0;whiteSpace=wrap;fillColor=#ffff99;shape=mxgraph.archimate3.businessObject;overflow=fill;" vertex="1" parent="1">
          <mxGeometry x="6031.25" y="1036" width="85" height="74" as="geometry" />
        </mxCell>
        <mxCell id="2fcH4yExuOtMv_uIpckA-628" style="edgeStyle=orthogonalEdgeStyle;rounded=0;orthogonalLoop=1;jettySize=auto;html=1;entryX=0.5;entryY=0;entryDx=0;entryDy=0;entryPerimeter=0;dashed=1;endArrow=open;endFill=0;exitX=0.5;exitY=1;exitDx=0;exitDy=0;exitPerimeter=0;" edge="1" parent="1" source="2fcH4yExuOtMv_uIpckA-626" target="2fcH4yExuOtMv_uIpckA-627">
          <mxGeometry relative="1" as="geometry">
            <mxPoint x="5898.5" y="1031" as="sourcePoint" />
            <mxPoint x="5898.5" y="1053" as="targetPoint" />
          </mxGeometry>
        </mxCell>
        <mxCell id="2fcH4yExuOtMv_uIpckA-629" value="Сервис аналитики активности" style="html=1;outlineConnect=0;whiteSpace=wrap;fillColor=#99ffff;shape=mxgraph.archimate3.application;appType=serv;archiType=rounded" vertex="1" parent="1">
          <mxGeometry x="5685.75" y="1270" width="108.75" height="75" as="geometry" />
        </mxCell>
        <mxCell id="2fcH4yExuOtMv_uIpckA-630" value="Сервис формирования топа фильмов" style="html=1;outlineConnect=0;whiteSpace=wrap;fillColor=#99ffff;shape=mxgraph.archimate3.application;appType=serv;archiType=rounded" vertex="1" parent="1">
          <mxGeometry x="5942.5" y="1260" width="102.5" height="75" as="geometry" />
        </mxCell>
        <mxCell id="2fcH4yExuOtMv_uIpckA-631" style="edgeStyle=orthogonalEdgeStyle;rounded=0;orthogonalLoop=1;jettySize=auto;html=1;exitX=0.5;exitY=0;exitDx=0;exitDy=0;exitPerimeter=0;endArrow=open;endFill=0;entryX=0.5;entryY=1;entryDx=0;entryDy=0;entryPerimeter=0;" edge="1" parent="1" source="2fcH4yExuOtMv_uIpckA-629" target="2fcH4yExuOtMv_uIpckA-588">
          <mxGeometry relative="1" as="geometry">
            <mxPoint x="5515.5" y="1313" as="sourcePoint" />
            <mxPoint x="5471.5" y="1080" as="targetPoint" />
            <Array as="points">
              <mxPoint x="5747.5" y="1270" />
              <mxPoint x="5747.5" y="1217" />
              <mxPoint x="5857.5" y="1217" />
            </Array>
          </mxGeometry>
        </mxCell>
        <mxCell id="2fcH4yExuOtMv_uIpckA-632" style="edgeStyle=orthogonalEdgeStyle;rounded=0;orthogonalLoop=1;jettySize=auto;html=1;exitX=0.5;exitY=0;exitDx=0;exitDy=0;exitPerimeter=0;endArrow=open;endFill=0;entryX=0.5;entryY=1;entryDx=0;entryDy=0;entryPerimeter=0;" edge="1" parent="1" source="2fcH4yExuOtMv_uIpckA-630" target="2fcH4yExuOtMv_uIpckA-586">
          <mxGeometry relative="1" as="geometry">
            <mxPoint x="5843.5" y="1316" as="sourcePoint" />
            <mxPoint x="6047.5" y="1227" as="targetPoint" />
            <Array as="points">
              <mxPoint x="5993.5" y="1220" />
              <mxPoint x="6070.5" y="1220" />
            </Array>
          </mxGeometry>
        </mxCell>
        <mxCell id="2fcH4yExuOtMv_uIpckA-633" value="Аналитика активности&lt;br&gt;&lt;br&gt;&lt;br&gt;&lt;br&gt;&lt;br&gt;&lt;br&gt;&lt;br&gt;&lt;br&gt;&lt;br&gt;&lt;br&gt;&lt;br&gt;&lt;br&gt;&lt;br&gt;&lt;br&gt;&lt;br&gt;&lt;br&gt;&lt;br&gt;" style="html=1;outlineConnect=0;whiteSpace=wrap;fillColor=#99ffff;shape=mxgraph.archimate3.application;appType=comp;archiType=square;" vertex="1" parent="1">
          <mxGeometry x="5604.5" y="1404" width="239.25" height="268.5" as="geometry" />
        </mxCell>
        <mxCell id="2fcH4yExuOtMv_uIpckA-634" value="Формирование топа фильмов&lt;br&gt;&lt;br&gt;&lt;br&gt;&lt;br&gt;&lt;br&gt;&lt;br&gt;&lt;br&gt;&lt;br&gt;&lt;br&gt;&lt;br&gt;&lt;br&gt;&lt;br&gt;&lt;br&gt;&lt;br&gt;&lt;br&gt;" style="html=1;outlineConnect=0;whiteSpace=wrap;fillColor=#99ffff;shape=mxgraph.archimate3.application;appType=comp;archiType=square;" vertex="1" parent="1">
          <mxGeometry x="5907.5" y="1409" width="160" height="268" as="geometry" />
        </mxCell>
        <mxCell id="2fcH4yExuOtMv_uIpckA-635" value="Формирование отчета по активности пользователей" style="html=1;outlineConnect=0;whiteSpace=wrap;fillColor=#99ffff;shape=mxgraph.archimate3.application;appType=func;archiType=rounded;" vertex="1" parent="1">
          <mxGeometry x="5625" y="1448" width="98.75" height="94.5" as="geometry" />
        </mxCell>
        <mxCell id="2fcH4yExuOtMv_uIpckA-636" value="Сохранение отчетов" style="html=1;outlineConnect=0;whiteSpace=wrap;fillColor=#99ffff;shape=mxgraph.archimate3.application;appType=func;archiType=rounded;" vertex="1" parent="1">
          <mxGeometry x="5754.5" y="1454.5" width="70" height="78" as="geometry" />
        </mxCell>
        <mxCell id="2fcH4yExuOtMv_uIpckA-637" value="&lt;br&gt;Данные об аккаунте пользователя" style="html=1;outlineConnect=0;whiteSpace=wrap;fillColor=#99ffff;shape=mxgraph.archimate3.businessObject;overflow=fill" vertex="1" parent="1">
          <mxGeometry x="5636.91" y="1593.5" width="74.93" height="60" as="geometry" />
        </mxCell>
        <mxCell id="2fcH4yExuOtMv_uIpckA-638" value="&lt;br&gt;&lt;br&gt;Данные об отчетах" style="html=1;outlineConnect=0;whiteSpace=wrap;fillColor=#99ffff;shape=mxgraph.archimate3.businessObject;overflow=fill" vertex="1" parent="1">
          <mxGeometry x="5756.75" y="1589.25" width="65.5" height="64.25" as="geometry" />
        </mxCell>
        <mxCell id="2fcH4yExuOtMv_uIpckA-639" style="edgeStyle=orthogonalEdgeStyle;rounded=0;orthogonalLoop=1;jettySize=auto;html=1;exitX=1;exitY=0.5;exitDx=0;exitDy=0;exitPerimeter=0;endArrow=block;endFill=1;entryX=0;entryY=0.5;entryDx=0;entryDy=0;entryPerimeter=0;" edge="1" parent="1" source="2fcH4yExuOtMv_uIpckA-635" target="2fcH4yExuOtMv_uIpckA-636">
          <mxGeometry relative="1" as="geometry">
            <mxPoint x="5719.75" y="932.5" as="sourcePoint" />
            <mxPoint x="5743.75" y="932.5" as="targetPoint" />
            <Array as="points">
              <mxPoint x="5723.75" y="1492.5" />
              <mxPoint x="5754.75" y="1492.5" />
            </Array>
          </mxGeometry>
        </mxCell>
        <mxCell id="2fcH4yExuOtMv_uIpckA-640" value="" style="edgeStyle=orthogonalEdgeStyle;rounded=0;orthogonalLoop=1;jettySize=auto;html=1;dashed=1;endArrow=open;endFill=0;entryX=0.5;entryY=0;entryDx=0;entryDy=0;entryPerimeter=0;exitX=0.5;exitY=1;exitDx=0;exitDy=0;exitPerimeter=0;" edge="1" parent="1" source="2fcH4yExuOtMv_uIpckA-635" target="2fcH4yExuOtMv_uIpckA-637">
          <mxGeometry relative="1" as="geometry">
            <mxPoint x="5417.75" y="1743.5" as="sourcePoint" />
            <mxPoint x="5417.75" y="1767.5" as="targetPoint" />
          </mxGeometry>
        </mxCell>
        <mxCell id="2fcH4yExuOtMv_uIpckA-641" value="" style="edgeStyle=orthogonalEdgeStyle;rounded=0;orthogonalLoop=1;jettySize=auto;html=1;dashed=1;endArrow=open;endFill=0;exitX=0.5;exitY=1;exitDx=0;exitDy=0;exitPerimeter=0;entryX=0.5;entryY=0;entryDx=0;entryDy=0;entryPerimeter=0;" edge="1" parent="1" source="2fcH4yExuOtMv_uIpckA-636" target="2fcH4yExuOtMv_uIpckA-638">
          <mxGeometry relative="1" as="geometry">
            <mxPoint x="5536.75" y="1743.5" as="sourcePoint" />
            <mxPoint x="5542.75" y="1767.5" as="targetPoint" />
          </mxGeometry>
        </mxCell>
        <mxCell id="2fcH4yExuOtMv_uIpckA-642" style="edgeStyle=orthogonalEdgeStyle;rounded=0;orthogonalLoop=1;jettySize=auto;html=1;dashed=1;endArrow=block;endFill=0;exitX=0.5;exitY=0;exitDx=0;exitDy=0;exitPerimeter=0;" edge="1" parent="1" source="2fcH4yExuOtMv_uIpckA-633" target="2fcH4yExuOtMv_uIpckA-629">
          <mxGeometry relative="1" as="geometry">
            <Array as="points">
              <mxPoint x="5724.5" y="1370" />
              <mxPoint x="5737.5" y="1370" />
            </Array>
            <mxPoint x="5556.5" y="1704" as="sourcePoint" />
            <mxPoint x="5737.5" y="1350" as="targetPoint" />
          </mxGeometry>
        </mxCell>
        <mxCell id="2fcH4yExuOtMv_uIpckA-645" value="Обновление топа фильмов" style="html=1;outlineConnect=0;whiteSpace=wrap;fillColor=#99ffff;shape=mxgraph.archimate3.application;appType=func;archiType=rounded;" vertex="1" parent="1">
          <mxGeometry x="5952.5" y="1465.5" width="70" height="78" as="geometry" />
        </mxCell>
        <mxCell id="2fcH4yExuOtMv_uIpckA-646" value="&lt;br&gt;&lt;br&gt;Данные о фильмах" style="html=1;outlineConnect=0;whiteSpace=wrap;fillColor=#99ffff;shape=mxgraph.archimate3.businessObject;overflow=fill" vertex="1" parent="1">
          <mxGeometry x="5954.75" y="1600.25" width="65.5" height="64.25" as="geometry" />
        </mxCell>
        <mxCell id="2fcH4yExuOtMv_uIpckA-647" value="" style="edgeStyle=orthogonalEdgeStyle;rounded=0;orthogonalLoop=1;jettySize=auto;html=1;dashed=1;endArrow=open;endFill=0;exitX=0.5;exitY=1;exitDx=0;exitDy=0;exitPerimeter=0;entryX=0.5;entryY=0;entryDx=0;entryDy=0;entryPerimeter=0;" edge="1" parent="1" source="2fcH4yExuOtMv_uIpckA-645" target="2fcH4yExuOtMv_uIpckA-646">
          <mxGeometry relative="1" as="geometry">
            <mxPoint x="5734.75" y="1754.5" as="sourcePoint" />
            <mxPoint x="5740.75" y="1778.5" as="targetPoint" />
          </mxGeometry>
        </mxCell>
        <mxCell id="2fcH4yExuOtMv_uIpckA-648" style="edgeStyle=orthogonalEdgeStyle;rounded=0;orthogonalLoop=1;jettySize=auto;html=1;dashed=1;endArrow=block;endFill=0;exitX=0.5;exitY=0;exitDx=0;exitDy=0;exitPerimeter=0;entryX=0.5;entryY=1;entryDx=0;entryDy=0;entryPerimeter=0;" edge="1" parent="1" source="2fcH4yExuOtMv_uIpckA-634" target="2fcH4yExuOtMv_uIpckA-630">
          <mxGeometry relative="1" as="geometry">
            <Array as="points">
              <mxPoint x="5993.5" y="1409" />
              <mxPoint x="5993.5" y="1340" />
              <mxPoint x="5993.5" y="1340" />
            </Array>
            <mxPoint x="5659.5" y="1414" as="sourcePoint" />
            <mxPoint x="5672.5" y="1355" as="targetPoint" />
          </mxGeometry>
        </mxCell>
        <mxCell id="2fcH4yExuOtMv_uIpckA-649" style="edgeStyle=orthogonalEdgeStyle;rounded=0;orthogonalLoop=1;jettySize=auto;html=1;startArrow=oval;startFill=1;exitX=0.5;exitY=1;exitDx=0;exitDy=0;exitPerimeter=0;entryX=0.5;entryY=0;entryDx=0;entryDy=0;entryPerimeter=0;" edge="1" parent="1" source="2fcH4yExuOtMv_uIpckA-467" target="2fcH4yExuOtMv_uIpckA-585">
          <mxGeometry relative="1" as="geometry">
            <mxPoint x="5047.5" y="720" as="sourcePoint" />
            <mxPoint x="4860.5" y="783" as="targetPoint" />
            <Array as="points">
              <mxPoint x="5432.5" y="750" />
              <mxPoint x="5942.5" y="750" />
            </Array>
          </mxGeometry>
        </mxCell>
        <mxCell id="2fcH4yExuOtMv_uIpckA-654" value="" style="edgeStyle=segmentEdgeStyle;endArrow=classic;html=1;curved=0;rounded=0;endSize=8;startSize=8;exitX=0.5;exitY=0;exitDx=0;exitDy=0;exitPerimeter=0;entryX=0.25;entryY=1;entryDx=0;entryDy=0;entryPerimeter=0;" edge="1" parent="1" source="2fcH4yExuOtMv_uIpckA-412" target="2fcH4yExuOtMv_uIpckA-514">
          <mxGeometry width="50" height="50" relative="1" as="geometry">
            <mxPoint x="4730" y="2170" as="sourcePoint" />
            <mxPoint x="4335" y="1660" as="targetPoint" />
            <Array as="points">
              <mxPoint x="4728" y="2070" />
              <mxPoint x="4303" y="2070" />
            </Array>
          </mxGeometry>
        </mxCell>
        <mxCell id="2fcH4yExuOtMv_uIpckA-655" value="" style="edgeStyle=segmentEdgeStyle;endArrow=classic;html=1;curved=0;rounded=0;endSize=8;startSize=8;entryX=0.25;entryY=1;entryDx=0;entryDy=0;entryPerimeter=0;" edge="1" parent="1" target="2fcH4yExuOtMv_uIpckA-519">
          <mxGeometry width="50" height="50" relative="1" as="geometry">
            <mxPoint x="4730" y="2160" as="sourcePoint" />
            <mxPoint x="4940" y="1820" as="targetPoint" />
            <Array as="points">
              <mxPoint x="4730" y="2070" />
              <mxPoint x="4448" y="2070" />
            </Array>
          </mxGeometry>
        </mxCell>
        <mxCell id="2fcH4yExuOtMv_uIpckA-656" value="" style="edgeStyle=segmentEdgeStyle;endArrow=classic;html=1;curved=0;rounded=0;endSize=8;startSize=8;entryX=0.25;entryY=1;entryDx=0;entryDy=0;entryPerimeter=0;" edge="1" parent="1" target="2fcH4yExuOtMv_uIpckA-524">
          <mxGeometry width="50" height="50" relative="1" as="geometry">
            <mxPoint x="4730" y="2160" as="sourcePoint" />
            <mxPoint x="4780" y="1870" as="targetPoint" />
            <Array as="points">
              <mxPoint x="4730" y="2070" />
              <mxPoint x="4584" y="2070" />
            </Array>
          </mxGeometry>
        </mxCell>
        <mxCell id="2fcH4yExuOtMv_uIpckA-658" value="" style="edgeStyle=segmentEdgeStyle;endArrow=classic;html=1;curved=0;rounded=0;endSize=8;startSize=8;entryX=0.25;entryY=1;entryDx=0;entryDy=0;entryPerimeter=0;" edge="1" parent="1" target="2fcH4yExuOtMv_uIpckA-606">
          <mxGeometry width="50" height="50" relative="1" as="geometry">
            <mxPoint x="4730" y="2160" as="sourcePoint" />
            <mxPoint x="5220" y="2040" as="targetPoint" />
            <Array as="points">
              <mxPoint x="4727" y="2160" />
              <mxPoint x="4727" y="2070" />
              <mxPoint x="5417" y="2070" />
            </Array>
          </mxGeometry>
        </mxCell>
        <mxCell id="2fcH4yExuOtMv_uIpckA-659" value="" style="edgeStyle=segmentEdgeStyle;endArrow=classic;html=1;curved=0;rounded=0;endSize=8;startSize=8;exitX=0.5;exitY=0;exitDx=0;exitDy=0;exitPerimeter=0;entryX=1;entryY=0.25;entryDx=0;entryDy=0;entryPerimeter=0;" edge="1" parent="1" source="2fcH4yExuOtMv_uIpckA-412" target="2fcH4yExuOtMv_uIpckA-541">
          <mxGeometry width="50" height="50" relative="1" as="geometry">
            <mxPoint x="5400" y="2090" as="sourcePoint" />
            <mxPoint x="5450" y="2040" as="targetPoint" />
            <Array as="points">
              <mxPoint x="4728" y="2070" />
              <mxPoint x="5240" y="2070" />
              <mxPoint x="5240" y="1472" />
            </Array>
          </mxGeometry>
        </mxCell>
        <mxCell id="2fcH4yExuOtMv_uIpckA-661" value="" style="edgeStyle=segmentEdgeStyle;endArrow=classic;html=1;curved=0;rounded=0;endSize=8;startSize=8;entryX=0.5;entryY=1;entryDx=0;entryDy=0;entryPerimeter=0;exitX=0.5;exitY=0;exitDx=0;exitDy=0;exitPerimeter=0;" edge="1" parent="1" source="2fcH4yExuOtMv_uIpckA-412" target="2fcH4yExuOtMv_uIpckA-633">
          <mxGeometry width="50" height="50" relative="1" as="geometry">
            <mxPoint x="5680" y="1700" as="sourcePoint" />
            <mxPoint x="5730" y="1650" as="targetPoint" />
            <Array as="points">
              <mxPoint x="4728" y="2070" />
              <mxPoint x="5724" y="2070" />
            </Array>
          </mxGeometry>
        </mxCell>
        <mxCell id="2fcH4yExuOtMv_uIpckA-662" value="" style="edgeStyle=segmentEdgeStyle;endArrow=classic;html=1;curved=0;rounded=0;endSize=8;startSize=8;entryX=0.25;entryY=1;entryDx=0;entryDy=0;entryPerimeter=0;exitX=0.5;exitY=0;exitDx=0;exitDy=0;exitPerimeter=0;" edge="1" parent="1" source="2fcH4yExuOtMv_uIpckA-412" target="2fcH4yExuOtMv_uIpckA-634">
          <mxGeometry width="50" height="50" relative="1" as="geometry">
            <mxPoint x="5310" y="2030" as="sourcePoint" />
            <mxPoint x="5360" y="1980" as="targetPoint" />
            <Array as="points">
              <mxPoint x="4728" y="2110" />
              <mxPoint x="5948" y="2110" />
            </Array>
          </mxGeometry>
        </mxCell>
        <mxCell id="2fcH4yExuOtMv_uIpckA-663" value="" style="edgeStyle=segmentEdgeStyle;endArrow=classic;html=1;curved=0;rounded=0;endSize=8;startSize=8;exitX=0.5;exitY=0;exitDx=0;exitDy=0;exitPerimeter=0;entryX=0.75;entryY=1;entryDx=0;entryDy=0;entryPerimeter=0;" edge="1" parent="1" source="2fcH4yExuOtMv_uIpckA-420" target="2fcH4yExuOtMv_uIpckA-557">
          <mxGeometry width="50" height="50" relative="1" as="geometry">
            <mxPoint x="5440" y="2120" as="sourcePoint" />
            <mxPoint x="5180" y="1870" as="targetPoint" />
            <Array as="points">
              <mxPoint x="5438" y="2110" />
              <mxPoint x="5102" y="2110" />
            </Array>
          </mxGeometry>
        </mxCell>
        <mxCell id="2fcH4yExuOtMv_uIpckA-664" value="" style="edgeStyle=segmentEdgeStyle;endArrow=classic;html=1;curved=0;rounded=0;endSize=8;startSize=8;exitX=0.5;exitY=0;exitDx=0;exitDy=0;exitPerimeter=0;entryX=0;entryY=0.75;entryDx=0;entryDy=0;entryPerimeter=0;" edge="1" parent="1" source="2fcH4yExuOtMv_uIpckA-420" target="2fcH4yExuOtMv_uIpckA-530">
          <mxGeometry width="50" height="50" relative="1" as="geometry">
            <mxPoint x="5220" y="2010" as="sourcePoint" />
            <mxPoint x="5270" y="1960" as="targetPoint" />
            <Array as="points">
              <mxPoint x="5438" y="2110" />
              <mxPoint x="5240" y="2110" />
              <mxPoint x="5240" y="1597" />
            </Array>
          </mxGeometry>
        </mxCell>
        <mxCell id="2fcH4yExuOtMv_uIpckA-665" value="" style="edgeStyle=segmentEdgeStyle;endArrow=classic;html=1;curved=0;rounded=0;endSize=8;startSize=8;exitX=0.5;exitY=0;exitDx=0;exitDy=0;exitPerimeter=0;entryX=1;entryY=0.75;entryDx=0;entryDy=0;entryPerimeter=0;" edge="1" parent="1" source="2fcH4yExuOtMv_uIpckA-420" target="2fcH4yExuOtMv_uIpckA-541">
          <mxGeometry width="50" height="50" relative="1" as="geometry">
            <mxPoint x="5220" y="1810" as="sourcePoint" />
            <mxPoint x="5270" y="1760" as="targetPoint" />
            <Array as="points">
              <mxPoint x="5438" y="2110" />
              <mxPoint x="5240" y="2110" />
              <mxPoint x="5240" y="1609" />
            </Array>
          </mxGeometry>
        </mxCell>
        <mxCell id="2fcH4yExuOtMv_uIpckA-666" value="" style="edgeStyle=segmentEdgeStyle;endArrow=classic;html=1;curved=0;rounded=0;endSize=8;startSize=8;exitX=0.5;exitY=0;exitDx=0;exitDy=0;exitPerimeter=0;entryX=0.75;entryY=1;entryDx=0;entryDy=0;entryPerimeter=0;" edge="1" parent="1" source="2fcH4yExuOtMv_uIpckA-420" target="2fcH4yExuOtMv_uIpckA-606">
          <mxGeometry width="50" height="50" relative="1" as="geometry">
            <mxPoint x="5290" y="1960" as="sourcePoint" />
            <mxPoint x="5260" y="1860" as="targetPoint" />
            <Array as="points">
              <mxPoint x="5438" y="2110" />
              <mxPoint x="5599" y="2110" />
            </Array>
          </mxGeometry>
        </mxCell>
        <mxCell id="2fcH4yExuOtMv_uIpckA-667" value="" style="edgeStyle=segmentEdgeStyle;endArrow=classic;html=1;curved=0;rounded=0;endSize=8;startSize=8;exitX=0.5;exitY=0;exitDx=0;exitDy=0;exitPerimeter=0;entryX=0.75;entryY=1;entryDx=0;entryDy=0;entryPerimeter=0;" edge="1" parent="1" source="2fcH4yExuOtMv_uIpckA-420" target="2fcH4yExuOtMv_uIpckA-633">
          <mxGeometry width="50" height="50" relative="1" as="geometry">
            <mxPoint x="5260" y="1960" as="sourcePoint" />
            <mxPoint x="5310" y="1910" as="targetPoint" />
            <Array as="points">
              <mxPoint x="5438" y="2110" />
              <mxPoint x="5784" y="2110" />
            </Array>
          </mxGeometry>
        </mxCell>
        <mxCell id="2fcH4yExuOtMv_uIpckA-668" value="" style="edgeStyle=segmentEdgeStyle;endArrow=classic;html=1;curved=0;rounded=0;endSize=8;startSize=8;exitX=0.5;exitY=0;exitDx=0;exitDy=0;exitPerimeter=0;entryX=0.75;entryY=1;entryDx=0;entryDy=0;entryPerimeter=0;" edge="1" parent="1" source="2fcH4yExuOtMv_uIpckA-420" target="2fcH4yExuOtMv_uIpckA-634">
          <mxGeometry width="50" height="50" relative="1" as="geometry">
            <mxPoint x="5490" y="1960" as="sourcePoint" />
            <mxPoint x="5540" y="1910" as="targetPoint" />
            <Array as="points">
              <mxPoint x="5438" y="2110" />
              <mxPoint x="6028" y="2110" />
            </Array>
          </mxGeometry>
        </mxCell>
        <mxCell id="2fcH4yExuOtMv_uIpckA-669" value="" style="edgeStyle=segmentEdgeStyle;endArrow=classic;html=1;curved=0;rounded=0;endSize=8;startSize=8;exitX=0.5;exitY=0;exitDx=0;exitDy=0;exitPerimeter=0;entryX=0.5;entryY=1;entryDx=0;entryDy=0;entryPerimeter=0;" edge="1" parent="1" source="2fcH4yExuOtMv_uIpckA-420" target="2fcH4yExuOtMv_uIpckA-539">
          <mxGeometry width="50" height="50" relative="1" as="geometry">
            <mxPoint x="4890" y="1960" as="sourcePoint" />
            <mxPoint x="4940" y="1910" as="targetPoint" />
            <Array as="points">
              <mxPoint x="5438" y="2110" />
              <mxPoint x="4793" y="2110" />
            </Array>
          </mxGeometry>
        </mxCell>
        <mxCell id="2fcH4yExuOtMv_uIpckA-670" value="" style="edgeStyle=segmentEdgeStyle;endArrow=classic;html=1;curved=0;rounded=0;endSize=8;startSize=8;exitX=0.5;exitY=0;exitDx=0;exitDy=0;exitPerimeter=0;entryX=0.75;entryY=1;entryDx=0;entryDy=0;entryPerimeter=0;" edge="1" parent="1" source="2fcH4yExuOtMv_uIpckA-420" target="2fcH4yExuOtMv_uIpckA-524">
          <mxGeometry width="50" height="50" relative="1" as="geometry">
            <mxPoint x="4890" y="1960" as="sourcePoint" />
            <mxPoint x="4940" y="1910" as="targetPoint" />
            <Array as="points">
              <mxPoint x="5438" y="2110" />
              <mxPoint x="4640" y="2110" />
            </Array>
          </mxGeometry>
        </mxCell>
        <mxCell id="2fcH4yExuOtMv_uIpckA-671" value="" style="edgeStyle=segmentEdgeStyle;endArrow=classic;html=1;curved=0;rounded=0;endSize=8;startSize=8;exitX=0.5;exitY=0;exitDx=0;exitDy=0;exitPerimeter=0;entryX=0.75;entryY=1;entryDx=0;entryDy=0;entryPerimeter=0;" edge="1" parent="1" source="2fcH4yExuOtMv_uIpckA-420" target="2fcH4yExuOtMv_uIpckA-519">
          <mxGeometry width="50" height="50" relative="1" as="geometry">
            <mxPoint x="4890" y="1960" as="sourcePoint" />
            <mxPoint x="4940" y="1910" as="targetPoint" />
            <Array as="points">
              <mxPoint x="5438" y="2110" />
              <mxPoint x="4506" y="2110" />
            </Array>
          </mxGeometry>
        </mxCell>
        <mxCell id="2fcH4yExuOtMv_uIpckA-672" value="" style="edgeStyle=segmentEdgeStyle;endArrow=classic;html=1;curved=0;rounded=0;endSize=8;startSize=8;exitX=0.5;exitY=0;exitDx=0;exitDy=0;exitPerimeter=0;entryX=0.75;entryY=1;entryDx=0;entryDy=0;entryPerimeter=0;" edge="1" parent="1" source="2fcH4yExuOtMv_uIpckA-420" target="2fcH4yExuOtMv_uIpckA-514">
          <mxGeometry width="50" height="50" relative="1" as="geometry">
            <mxPoint x="4890" y="1960" as="sourcePoint" />
            <mxPoint x="4940" y="1910" as="targetPoint" />
            <Array as="points">
              <mxPoint x="5438" y="2110" />
              <mxPoint x="4368" y="2110" />
            </Array>
          </mxGeometry>
        </mxCell>
        <mxCell id="2fcH4yExuOtMv_uIpckA-673" value="" style="edgeStyle=segmentEdgeStyle;endArrow=classic;html=1;curved=0;rounded=0;endSize=8;startSize=8;exitX=0.5;exitY=0;exitDx=0;exitDy=0;exitPerimeter=0;entryX=0;entryY=0.25;entryDx=0;entryDy=0;entryPerimeter=0;" edge="1" parent="1" source="2fcH4yExuOtMv_uIpckA-412" target="2fcH4yExuOtMv_uIpckA-530">
          <mxGeometry width="50" height="50" relative="1" as="geometry">
            <mxPoint x="4750" y="2100" as="sourcePoint" />
            <mxPoint x="4800" y="2050" as="targetPoint" />
            <Array as="points">
              <mxPoint x="4728" y="2070" />
              <mxPoint x="5240" y="2070" />
              <mxPoint x="5240" y="1480" />
            </Array>
          </mxGeometry>
        </mxCell>
        <mxCell id="2fcH4yExuOtMv_uIpckA-674" value="" style="edgeStyle=segmentEdgeStyle;endArrow=classic;html=1;curved=0;rounded=0;endSize=8;startSize=8;exitX=0.5;exitY=0;exitDx=0;exitDy=0;exitPerimeter=0;entryX=0.25;entryY=1;entryDx=0;entryDy=0;entryPerimeter=0;" edge="1" parent="1" source="2fcH4yExuOtMv_uIpckA-412" target="2fcH4yExuOtMv_uIpckA-557">
          <mxGeometry width="50" height="50" relative="1" as="geometry">
            <mxPoint x="4750" y="2100" as="sourcePoint" />
            <mxPoint x="4800" y="2050" as="targetPoint" />
            <Array as="points">
              <mxPoint x="4728" y="2070" />
              <mxPoint x="4921" y="2070" />
            </Array>
          </mxGeometry>
        </mxCell>
        <mxCell id="2fcH4yExuOtMv_uIpckA-675" value="" style="edgeStyle=segmentEdgeStyle;endArrow=classic;html=1;curved=0;rounded=0;endSize=8;startSize=8;exitX=0.5;exitY=0;exitDx=0;exitDy=0;exitPerimeter=0;entryX=0.25;entryY=1;entryDx=0;entryDy=0;entryPerimeter=0;" edge="1" parent="1" source="2fcH4yExuOtMv_uIpckA-412" target="2fcH4yExuOtMv_uIpckA-539">
          <mxGeometry width="50" height="50" relative="1" as="geometry">
            <mxPoint x="4750" y="2100" as="sourcePoint" />
            <mxPoint x="4800" y="2050" as="targetPoint" />
            <Array as="points">
              <mxPoint x="4730" y="2160" />
              <mxPoint x="4730" y="1680" />
              <mxPoint x="4740" y="1680" />
            </Array>
          </mxGeometry>
        </mxCell>
        <mxCell id="2fcH4yExuOtMv_uIpckA-677" value="Данные об отчетах" style="html=1;outlineConnect=0;whiteSpace=wrap;fillColor=#AFFFAF;shape=mxgraph.archimate3.application;appType=artifact;archiType=square;" vertex="1" parent="1">
          <mxGeometry x="5430.75" y="2390" width="93.5" height="52.5" as="geometry" />
        </mxCell>
        <mxCell id="2fcH4yExuOtMv_uIpckA-678" value="Данные о фильмах" style="html=1;outlineConnect=0;whiteSpace=wrap;fillColor=#AFFFAF;shape=mxgraph.archimate3.application;appType=artifact;archiType=square;" vertex="1" parent="1">
          <mxGeometry x="5117.5" y="2522.5" width="93.5" height="52.5" as="geometry" />
        </mxCell>
      </root>
    </mxGraphModel>
  </diagram>
</mxfile>
